<svg width="53" height="53" viewBox="0 0 53 53" fill="none" xmlns="http://www.w3.org/2000/svg">
<path d="M52.8387 52.6299V0C35.2258 0 17.6129 0 0 0V52.6299C17.6129 52.6299 35.2258 52.6299 52.8387 52.6299ZM32.0625 51.389V40.4977H30.8216V51.389H24.5558C24.5264 50.4704 24.4449 49.4171 24.2687 48.306C23.6598 44.4605 22.2277 42.2101 22.3494 37.8718C22.4365 34.7304 23.2454 31.67 24.3433 28.7412V10.3746C22.5042 7.67844 22.8134 4.08313 24.1527 1.24086H28.0627C28.9431 3.59594 29.2936 6.12909 28.2991 8.51175V30.0554C27.7662 31.7552 27.3016 33.3905 27.558 35.1737C27.7681 36.5651 28.2295 39.6212 27.9417 41.7361C27.7837 42.9005 27.4012 43.7457 26.5999 43.6372C25.1383 43.4378 24.2912 41.6922 23.9972 40.4106C23.4366 37.9753 24.1044 35.2264 26.1591 33.6727L25.4124 32.6839C22.9676 34.5317 22.1193 37.7784 22.7902 40.6871C23.2109 42.5192 24.3991 44.5865 26.4344 44.863C28.1587 45.0975 28.9149 43.7639 29.1682 41.9016C29.4811 39.6024 29.0026 36.4334 28.7838 34.99C28.5612 33.452 29.0227 31.702 29.5406 30.2554V8.7519C30.5031 6.3429 30.1996 3.64296 29.3757 1.24086H31.1734V36.5726H32.4142V1.24086H35.0954V51.389H32.0625ZM43.9369 27.6458C44.6197 25.7371 44.6197 22.7312 43.9369 20.8226C43.1099 18.507 41.3066 18.5064 40.4789 20.822C39.7967 22.7337 39.7967 25.7346 40.4789 27.6464C41.3066 29.962 43.1099 29.9614 43.9369 27.6458ZM42.7688 27.2288C42.338 28.4346 42.0785 28.4365 41.6471 27.2294C41.0621 25.5892 41.0621 22.8792 41.6471 21.2389C42.0785 20.0325 42.338 20.0344 42.7688 21.2396C43.3551 22.8773 43.3551 25.5917 42.7688 27.2288ZM44.2912 43.624V36.7871C44.5288 35.6935 47.2507 22.8152 45.3139 15.2697C43.9639 11.4405 44.1595 5.17477 44.4022 1.24086H47.4896V12.7328H48.7305V1.24086H51.5978V51.389H44.1871V46.7566H42.9462V51.389H36.3362V1.24086H43.1613C42.56 11.1552 43.9169 15.0747 44.1244 15.6071C45.5797 21.3298 44.3489 30.8028 43.0497 36.6723V43.624H44.2912ZM48.7305 30.1238V15.318H47.4896V30.1238H48.7305ZM48.7305 49.6553V34.8496H47.4896V49.6553H48.7305ZM41.0539 49.8378V35.7845C39.8287 29.8723 38.3464 18.9604 40.8445 13.4087V6.07328H39.6036V13.1598C36.5977 20.1385 39.5823 34.7994 39.813 35.8998V49.8378H41.0539ZM22.7939 1.24086C20.6652 6.27706 22.6052 9.93821 23.1024 10.7452V28.5286C21.7901 32.0675 21.19 35.1029 21.1135 37.8386C20.9875 42.3512 22.4234 44.5552 23.0472 48.4997C23.2122 49.5399 23.2905 50.5262 23.3194 51.389H21.1863V46.445H19.9454V51.389H17.3263V1.24086H19.9454V26.6764H21.1863V1.24086H22.7939ZM27.5235 40.7937C28.0182 39.6613 28.017 37.9245 27.5235 36.7921C26.8858 35.3324 25.4945 35.3324 24.8568 36.7921C24.3634 37.9245 24.3621 39.6613 24.8568 40.7937C25.4939 42.254 26.8865 42.254 27.5235 40.7937ZM26.3892 40.2996C26.1892 40.7598 26.1917 40.7598 25.9911 40.2996C25.6387 39.4908 25.6393 38.095 25.9911 37.2862C26.1924 36.8266 26.1886 36.8266 26.3892 37.2862C26.741 38.095 26.7416 39.4908 26.3892 40.2996ZM6.04068 40.9787C6.04068 40.968 5.93534 37.0667 4.66626 31.885C3.44608 26.9034 5.39924 17.1364 5.40426 17.1088C5.76479 15.2653 5.41617 7.43516 5.41617 4.97851H4.1753V16.9351C4.00977 17.7872 2.23531 27.1573 3.46364 32.1754C4.70137 37.2304 4.80483 41.037 4.80483 41.047L6.04068 40.9787ZM7.63769 34.5248C7.6333 34.5085 5.84505 28.5274 6.29963 24.7922C6.47959 23.3125 6.8652 22.8447 7.18624 22.7306C7.84335 22.5011 9.28925 29.5789 8.11234 28.0696C7.68973 27.5292 7.90605 26.6313 7.90668 26.6288L6.69904 26.3623C6.42253 27.743 7.45397 30.342 8.58197 29.4315C9.80089 28.444 10.0649 22.1155 7.67468 21.4458C6.79999 21.2013 5.46319 21.4045 5.06817 24.6468C4.58224 28.6415 6.44071 34.8471 6.4451 34.8634L7.63769 34.5248ZM9.43597 44.2448C9.4366 44.2304 9.9564 38.623 10.791 31.7377C11.5873 25.1634 9.50243 17.9659 9.22968 17.0617V12.0287H7.98819V17.231C9.31245 21.5412 10.0987 27.1467 9.56012 31.5922C8.72368 38.4932 8.20075 44.1376 8.20012 44.1532L9.43597 44.2448ZM9.43848 7.04328V1.24086H16.0855V51.389H9.43848V45.638H8.19761V51.389H5.9924V43.392H4.7509V51.389H1.24087V1.24086H8.19761V7.04328H9.43848ZM14.2972 9.81218V4.92897H13.0557V9.81218H14.2972ZM14.2972 40.0507V14.4088H13.0557V40.0507H14.2972ZM14.2972 49.503V43.34H13.0557V49.503H14.2972Z" fill="#AD8E52"/>
</svg>
