<svg width="60" height="52" viewBox="0 0 60 52" fill="none" xmlns="http://www.w3.org/2000/svg">
<path d="M11.1628 0.697674V17.3549L19.5349 21.8461V13.256C19.5349 12.7838 20.1131 12.4172 20.5378 12.6238L39.0698 21.8897V13.256C39.0698 12.7838 39.648 12.4172 40.0727 12.6238L59.6075 22.3912C59.8428 22.5057 60.0018 22.7618 60 23.0235V50.9303C59.9999 51.2956 59.6676 51.6279 59.3023 51.6279H0.697674C0.332372 51.6279 6.97674e-05 51.2956 0 50.9303V0.697674C6.97674e-05 0.332386 0.332372 3.48837e-05 0.697674 0H10.4651C10.9027 0.00139535 11.1303 0.423739 11.1628 0.697674ZM9.76744 1.39535H1.39535V50.2326H58.6046V23.4377L40.4651 14.3679V23.0235C40.4539 23.4884 39.8804 23.8374 39.4622 23.6339L20.9302 14.3679V23.0235C20.9233 23.5003 20.3267 23.8574 19.9055 23.6339L10.138 18.4014C9.9173 18.2842 9.76953 18.0408 9.76744 17.7909V1.39535ZM51.6279 31.3953C51.9932 31.3954 52.3255 31.7278 52.3256 32.093V40.4651C52.3255 40.8305 51.9932 41.1628 51.6279 41.1628H41.8605C41.4952 41.1628 41.1628 40.8305 41.1628 40.4651V32.093C41.1628 31.7278 41.4952 31.3954 41.8605 31.3953H51.6279ZM34.8837 31.3953C35.249 31.3954 35.5813 31.7278 35.5814 32.093V40.4651C35.5813 40.8305 35.249 41.1628 34.8837 41.1628H25.1163C24.751 41.1628 24.4187 40.8305 24.4186 40.4651V32.093C24.4187 31.7278 24.751 31.3954 25.1163 31.3953H34.8837ZM18.1395 31.3953C18.5048 31.3954 18.8371 31.7278 18.8372 32.093V40.4651C18.8371 40.8305 18.5048 41.1628 18.1395 41.1628H8.37209C8.00679 41.1628 7.67449 40.8305 7.67442 40.4651V32.093C7.67449 31.7278 8.00679 31.3954 8.37209 31.3953H18.1395ZM50.9302 32.7907H42.5581V39.7675H50.9302V32.7907ZM34.186 32.7907H25.8139V39.7675H34.186V32.7907ZM17.4419 32.7907H9.06977V39.7675H17.4419V32.7907Z" fill="#AD8E52"/>
</svg>
