<svg width="47" height="52" viewBox="0 0 47 52" fill="none" xmlns="http://www.w3.org/2000/svg">
<path d="M20.6538 24.0513C20.7077 24.0513 20.7617 24.0513 20.8156 24.1053C20.7617 24.0513 20.7617 24.0513 20.7077 24.0513C20.6538 24.0513 20.6538 24.0513 20.6538 24.0513Z" fill="#AD8E52"/>
<path d="M46.4309 9.97644C46.7544 9.27539 46.9702 8.57435 46.9702 7.81937C46.9702 3.45131 40.3911 0 32.0325 0C23.6738 0 17.0948 3.45131 17.0948 7.81937C17.0948 8.57435 17.3105 9.27539 17.634 9.97644C17.3105 10.6775 17.0948 11.3785 17.0948 12.1335C17.0948 12.8885 17.3105 13.5895 17.634 14.2906C17.3105 14.9916 17.0948 15.6927 17.0948 16.4476C17.0948 17.2026 17.3105 17.9037 17.634 18.6047C17.5801 18.6586 17.5801 18.7126 17.5801 18.7126C16.7173 18.6047 15.8544 18.6047 14.9377 18.6047C6.57906 18.6047 0 22.056 0 26.4241C0 27.1791 0.215707 27.8801 0.539267 28.5812C0.215707 29.2822 0 29.9832 0 30.7382C0 31.4932 0.215707 32.1942 0.539267 32.8953C0.215707 33.5963 0 34.2974 0 35.0524C0 35.8073 0.215707 36.5084 0.539267 37.2094C0.215707 37.9105 0 38.6115 0 39.3665C0 40.1215 0.215707 40.8225 0.539267 41.5236C0.215707 42.2246 0 42.9257 0 43.6806C0 48.0487 6.57906 51.5 14.9377 51.5C21.9482 51.5 27.7723 49.0733 29.3901 45.6759C30.2529 45.7838 31.1157 45.7838 32.0325 45.7838C40.3911 45.7838 46.9702 42.3325 46.9702 37.9644C46.9702 37.2094 46.7544 36.5084 46.4309 35.8073C46.7544 35.1063 46.9702 34.4052 46.9702 33.6503C46.9702 32.8953 46.7544 32.1942 46.4309 31.4932C46.7544 30.7921 46.9702 30.0911 46.9702 29.3361C46.9702 28.5812 46.7544 27.8801 46.4309 27.1791C46.7544 26.478 46.9702 25.777 46.9702 25.022C46.9702 24.267 46.7544 23.566 46.4309 22.8649C46.7544 22.1639 46.9702 21.4628 46.9702 20.7079C46.9702 19.9529 46.7544 19.2518 46.4309 18.5508C46.7544 17.8497 46.9702 17.1487 46.9702 16.3937C46.9702 15.6387 46.7544 14.9377 46.4309 14.2366C46.7544 13.5356 46.9702 12.8346 46.9702 12.0796C46.9702 11.3246 46.8084 10.6236 46.4309 9.97644ZM28.4194 43.8424C28.3654 44.0581 28.3115 44.3277 28.2037 44.5435C28.0958 44.7592 27.988 44.9749 27.8801 45.2445C26.1544 47.8869 20.9236 49.7743 14.9377 49.7743C7.65759 49.8283 1.45602 46.8623 1.45602 43.411C1.45602 43.1414 1.50995 42.9257 1.56387 42.656C3.99058 45.2445 9.00576 46.9702 14.9916 46.9702C19.144 46.9702 22.811 46.1613 25.4534 44.7592C25.777 44.5974 26.1005 44.4356 26.3702 44.2738C26.6398 44.112 26.9633 43.8963 27.1791 43.6806C27.6105 43.3571 27.988 43.0335 28.3654 42.656C28.4733 42.9257 28.4733 43.1414 28.4733 43.411C28.4733 43.5728 28.4733 43.7346 28.4194 43.8424ZM28.4194 39.5822C28.4194 39.6901 28.3654 39.7979 28.3654 39.9058C28.3115 40.0136 28.3115 40.1754 28.2037 40.2832C28.1497 40.3911 28.0958 40.499 28.0419 40.6068C27.988 40.7147 27.934 40.8764 27.8262 40.9843C27.7183 41.0921 27.6644 41.2 27.6105 41.2539C27.0712 41.955 26.2623 42.6021 25.2377 43.1953C24.9681 43.3571 24.6445 43.5188 24.3209 43.6806C23.9974 43.8424 23.6738 43.9503 23.3503 44.112C21.0314 44.9749 18.0654 45.5141 14.9377 45.5141C9.16754 45.5141 4.15236 43.7346 2.26492 41.2539C2.10314 41.0382 1.94136 40.8225 1.83351 40.6068C1.67173 40.3911 1.6178 40.1215 1.56387 39.9058C1.45602 39.6361 1.45602 39.4204 1.45602 39.1508C1.45602 38.8811 1.50995 38.6654 1.56387 38.3958C1.83351 38.6654 2.04921 38.9351 2.37277 39.1508C2.53455 39.3126 2.75026 39.4204 2.96597 39.5822H3.0199C3.2356 39.744 3.39738 39.8518 3.66702 40.0136C6.41728 41.6853 10.4618 42.7099 15.0455 42.7099C16.7712 42.7099 18.389 42.5482 19.9529 42.2785C20.2764 42.2246 20.6 42.1707 20.9236 42.1168C21.2471 42.0089 21.6246 41.955 21.8942 41.8471C23.2424 41.5236 24.4827 41.0382 25.5073 40.499C25.8309 40.3372 26.1005 40.2293 26.3702 40.0675C26.4241 40.0136 26.4241 40.0136 26.4241 40.0136C26.6398 39.9058 26.8016 39.744 27.0173 39.6361H27.0712C27.1791 39.5822 27.233 39.5283 27.2869 39.4743C27.3948 39.4204 27.5026 39.3126 27.6105 39.2047C27.934 38.989 28.2037 38.7194 28.4194 38.4497C28.5272 38.7194 28.5272 38.9351 28.5272 39.2047C28.4733 39.2586 28.4733 39.4204 28.4194 39.5822ZM28.4194 35.322C28.4194 35.4298 28.3654 35.5377 28.3654 35.6455C28.3115 35.7534 28.3115 35.9152 28.2037 36.023C28.1497 36.1309 28.0958 36.2387 28.0419 36.3466C27.988 36.4544 27.934 36.6162 27.8262 36.7241C27.7183 36.8319 27.6644 36.9398 27.6105 36.9937C27.2869 37.4251 26.8016 37.8565 26.2623 38.288C26.0466 38.4497 25.8309 38.5576 25.6152 38.7194C25.5073 38.8272 25.3455 38.8811 25.2377 38.9351C25.1298 38.989 25.022 39.0969 24.8602 39.1508C24.6984 39.2586 24.4827 39.3665 24.267 39.4204C23.9435 39.5822 23.6199 39.6901 23.2963 39.8518C22.4335 40.1754 21.355 40.499 20.2225 40.7147C20.2225 40.7147 20.2225 40.7147 20.1686 40.7147C19.899 40.8225 19.5754 40.8764 19.3058 40.8764C19.0361 40.9304 18.7665 40.9843 18.4969 41.0382C17.3644 41.2 16.178 41.2539 14.9916 41.2539C11.1089 41.2539 7.54974 40.445 5.06911 39.0969C4.79948 38.9351 4.52984 38.8272 4.31414 38.6654C4.09843 38.5037 3.88272 38.3958 3.66702 38.234C3.12775 37.8565 2.69633 37.4251 2.31885 36.9398C2.15707 36.7241 1.99529 36.5084 1.88743 36.2927C1.72565 36.077 1.67173 35.8073 1.6178 35.5916C1.50995 35.322 1.50995 35.1063 1.50995 34.8366C1.50995 34.567 1.56387 34.3513 1.6178 34.0817C1.88743 34.3513 2.10314 34.6209 2.4267 34.8366C2.58848 34.9984 2.80419 35.1063 3.0199 35.2681H3.07382C3.28953 35.4298 3.45131 35.5377 3.72094 35.6995C4.52984 36.1309 5.39267 36.5623 6.41728 36.9398C6.74084 37.1016 7.17225 37.2094 7.54974 37.3173H7.60366C8.03508 37.4791 8.46649 37.5869 8.95183 37.6948C10.8393 38.1262 12.8885 38.3958 15.1534 38.3958C15.9084 38.3958 16.6094 38.3419 17.3644 38.288C17.634 38.288 17.8497 38.234 18.0654 38.234C18.2812 38.1801 18.5508 38.1801 18.7665 38.1262C19.1979 38.0723 19.6293 38.0183 20.0607 37.9105C20.3843 37.8565 20.7079 37.8026 21.0314 37.7487C21.1393 37.6948 21.2471 37.6948 21.355 37.6408C21.5707 37.5869 21.7864 37.533 22.056 37.4791C22.2717 37.4251 22.4874 37.3712 22.7031 37.2633H22.7571C23.1346 37.1555 23.566 37.0476 23.8895 36.8859C24.5366 36.6702 25.1298 36.4005 25.6691 36.077C25.9927 35.9152 26.2623 35.8073 26.5319 35.6455C26.5859 35.5916 26.5859 35.5916 26.5859 35.5916C26.8016 35.4838 26.9633 35.322 27.1791 35.2141H27.233C27.3408 35.1602 27.3948 35.1063 27.4487 35.0524C27.5565 34.9984 27.6644 34.8906 27.7723 34.7827C28.0958 34.567 28.3654 34.2974 28.5812 34.0277C28.689 34.2974 28.689 34.5131 28.689 34.7827C28.4733 34.9984 28.4733 35.1602 28.4194 35.322ZM28.4733 30.8461C28.4733 30.9539 28.4733 31.0079 28.4194 31.0618C28.4194 31.1696 28.3654 31.2775 28.3654 31.3853C28.3654 31.4393 28.3115 31.4932 28.2576 31.601C28.3115 31.655 28.2576 31.7089 28.2037 31.8168C28.1497 31.9246 28.0958 32.0325 28.0419 32.1403C27.988 32.2482 27.934 32.4099 27.8262 32.5178C27.7183 32.6257 27.6644 32.7335 27.6105 32.7874C27.2869 33.2188 26.8016 33.6503 26.2623 34.0817C26.0466 34.2435 25.8309 34.3513 25.6152 34.5131C25.5073 34.6209 25.3455 34.6749 25.2377 34.7288C25.1298 34.7827 25.022 34.8906 24.8602 34.9445C24.6984 35.0524 24.4827 35.1602 24.267 35.2141C23.9435 35.3759 23.6199 35.4838 23.2963 35.6455C22.5953 35.9152 21.8942 36.1309 21.0853 36.3466C20.8157 36.4544 20.4921 36.5084 20.1686 36.5623C20.1686 36.5623 20.1686 36.5623 20.1147 36.5623C19.845 36.6162 19.5754 36.6702 19.3058 36.7241C19.3058 36.7241 19.3058 36.7241 19.2518 36.7241C19.2518 36.7241 19.2518 36.7241 19.1979 36.7241C18.9822 36.778 18.8204 36.8319 18.6047 36.8319C18.4969 36.8319 18.4429 36.8319 18.389 36.8859C18.2272 36.9398 18.0115 36.9398 17.8497 36.9398H17.7958C17.5262 36.9937 17.3105 36.9937 17.0408 36.9937C16.2859 37.1016 15.5848 37.1016 14.8298 37.1016C13.3199 37.1016 11.8639 36.9398 10.4618 36.7241H10.5696C9.92251 36.6162 9.38325 36.5084 8.79005 36.3466C7.38796 36.023 6.09372 35.5377 5.01518 34.9445C4.74555 34.7827 4.47592 34.6749 4.26021 34.5131C4.0445 34.3513 3.8288 34.2435 3.61309 34.0817C3.07382 33.7042 2.64241 33.2728 2.26492 32.7874C2.10314 32.5717 1.94136 32.356 1.83351 32.1403C1.67173 31.9246 1.6178 31.655 1.56387 31.4393C1.45602 31.1696 1.45602 30.9539 1.45602 30.6843C1.45602 30.4147 1.50995 30.199 1.56387 29.9293C1.83351 30.199 2.04921 30.4686 2.37277 30.6843C2.53455 30.8461 2.75026 30.9539 2.96597 31.1157H3.0199C3.2356 31.2775 3.39738 31.3853 3.66702 31.5471C4.47592 31.9785 5.33874 32.4099 6.36335 32.7874C6.68691 32.9492 7.11832 33.0571 7.49581 33.1649H7.54974C7.98115 33.3267 8.41257 33.4346 8.89791 33.5424C10.7853 33.9738 12.8346 34.2435 15.0995 34.2435C15.8545 34.2435 16.5555 34.1895 17.3105 34.1356C17.5801 34.1356 17.7958 34.0817 18.0115 34.0817C18.2272 34.0277 18.4969 34.0277 18.7126 33.9738C18.8743 33.9738 18.9822 33.9199 19.09 33.9199C19.3597 33.866 19.6832 33.812 19.9529 33.7581C20.1147 33.7042 20.2764 33.7042 20.4382 33.6503H20.4921C20.6539 33.5963 20.7618 33.5963 20.9236 33.5424C21.0314 33.4885 21.1393 33.4885 21.2471 33.4346C21.4628 33.3806 21.6785 33.3267 21.9482 33.2728C22.1639 33.2188 22.3796 33.1649 22.5953 33.0571H22.6492C22.9728 32.9492 23.2424 32.8953 23.512 32.7874C23.6199 32.7335 23.7277 32.6796 23.7817 32.6796C24.4288 32.4639 25.022 32.1942 25.5613 31.8707C25.8848 31.7089 26.1544 31.601 26.4241 31.4393C26.478 31.3853 26.478 31.3853 26.478 31.3853C26.6398 31.2775 26.7476 31.1696 26.9094 31.0618C26.9094 31.0079 26.9634 31.0079 26.9634 31.0079H27.0173L27.0712 30.9539H27.1251C27.233 30.9 27.2869 30.8461 27.3408 30.7921C27.4487 30.7382 27.5565 30.6304 27.6644 30.5225C27.8262 30.3607 27.988 30.2529 28.1497 30.0911L28.4733 29.7675C28.5272 29.8754 28.5272 29.9832 28.5272 30.0372C28.5812 30.199 28.5812 30.3607 28.5812 30.5225C28.4733 30.6843 28.4733 30.7382 28.4733 30.8461ZM28.4733 26.5319C28.4733 26.6398 28.4733 26.6937 28.4194 26.7476C28.4194 26.8555 28.3654 26.9634 28.3654 27.0712C28.3654 27.1251 28.3115 27.1791 28.2576 27.2869C28.3115 27.3408 28.2576 27.3948 28.2037 27.5026C28.1497 27.6105 28.0958 27.7183 28.0419 27.8262C27.988 27.934 27.934 28.0958 27.8262 28.2037C27.7183 28.3115 27.6644 28.4194 27.6105 28.4733C27.2869 28.9047 26.8016 29.3361 26.2623 29.7675C26.0466 29.9293 25.8309 30.0372 25.6152 30.199C25.5073 30.3068 25.3455 30.3607 25.2377 30.4147C25.1298 30.4686 25.022 30.5764 24.8602 30.6304C24.6984 30.7382 24.4827 30.8461 24.267 30.9C24.0513 31.0079 23.8356 31.1157 23.566 31.2236C23.4581 31.2775 23.3503 31.2775 23.2963 31.3314C22.5953 31.601 21.8942 31.8168 21.0853 32.0325C20.8157 32.1403 20.4921 32.1942 20.1686 32.2482C20.1686 32.2482 20.1686 32.2482 20.1147 32.2482C19.845 32.3021 19.5754 32.356 19.3058 32.4099C19.3058 32.4099 19.3058 32.4099 19.2518 32.4099C19.2518 32.4099 19.2518 32.4099 19.1979 32.4099C18.9822 32.4639 18.8204 32.5178 18.6047 32.5178C18.4969 32.5178 18.4429 32.5178 18.389 32.5717C18.2272 32.6257 18.0115 32.6257 17.8497 32.6257H17.7958C17.5262 32.6796 17.3105 32.6796 17.0408 32.6796C16.2859 32.7874 15.5848 32.7874 14.8298 32.7874C13.3199 32.7874 11.8639 32.6257 10.4618 32.4099H10.5696C9.92251 32.3021 9.38325 32.1942 8.79005 32.0325C7.38796 31.7089 6.09372 31.2236 5.01518 30.6304C4.74555 30.4686 4.47592 30.3607 4.26021 30.199C4.0445 30.0372 3.8288 29.9293 3.61309 29.7675C3.07382 29.3901 2.64241 28.9586 2.26492 28.4733C2.10314 28.2576 1.94136 28.0419 1.83351 27.8262C1.67173 27.6105 1.6178 27.3408 1.56387 27.1251C1.45602 26.8555 1.45602 26.6398 1.45602 26.3702C1.45602 22.9188 7.65759 19.9529 14.9916 19.9529C15.7466 19.9529 16.4476 20.0068 17.2026 20.0607C17.4183 20.0607 17.688 20.1147 17.9037 20.1147C18.1194 20.1147 18.389 20.1686 18.6047 20.2225C18.7665 20.2225 18.8743 20.2764 19.0361 20.2764C19.3058 20.3304 19.5754 20.3843 19.845 20.4382C20.1147 20.4921 20.3304 20.5461 20.5461 20.6C20.6539 20.6 20.7079 20.6539 20.8157 20.6539C21.1393 20.7079 21.4628 20.8157 21.7864 20.9236C23.0806 21.2471 24.267 21.7325 25.2377 22.2717C25.5613 22.4335 25.8309 22.5953 26.1005 22.811H26.1544C26.2084 22.8649 26.2623 22.9188 26.3162 22.9188C26.5319 23.0806 26.6937 23.1885 26.8555 23.3503H26.9094C27.1251 23.512 27.2869 23.6738 27.4487 23.8895C28.0958 24.4827 28.4194 25.1838 28.5812 25.8848C28.6351 26.0466 28.6351 26.2084 28.6351 26.3702C28.4733 26.4241 28.4733 26.478 28.4733 26.5319ZM32.0325 44.112C31.2775 44.112 30.5764 44.0581 29.8215 44.0042C29.8754 43.7885 29.8754 43.6267 29.8754 43.411C29.8754 42.656 29.6597 41.955 29.3361 41.2539C29.3901 41.2 29.3901 41.1461 29.3901 41.1461C30.2529 41.2539 31.1157 41.2539 32.0325 41.2539C37.9644 41.2539 43.0335 39.5283 45.4602 36.9398C45.5681 37.2094 45.5681 37.4251 45.5681 37.6948C45.5681 41.2 39.3665 44.112 32.0325 44.112ZM45.4602 34.1895C45.4063 34.4052 45.2984 34.6749 45.1906 34.8906C45.0827 35.1063 44.9209 35.322 44.7592 35.5377C42.8717 38.0183 37.8026 39.7979 32.0864 39.7979C31.3314 39.7979 30.6304 39.744 29.8754 39.6901C29.9293 39.4743 29.9293 39.3126 29.9293 39.0969C29.9293 38.3419 29.7136 37.6408 29.3901 36.9398C29.444 36.8859 29.444 36.8319 29.444 36.8319C30.3068 36.9398 31.1696 36.9398 32.0864 36.9398C36.6702 36.9398 40.7147 35.9152 43.4649 34.2435C43.6806 34.0817 43.8963 33.9199 44.112 33.812H44.166C44.3817 33.6503 44.5435 33.5424 44.7592 33.3806C45.0827 33.1649 45.3524 32.8953 45.5681 32.6257C45.6759 32.8953 45.6759 33.111 45.6759 33.3806C45.6759 33.6503 45.5141 33.9738 45.4602 34.1895ZM45.4602 29.9293C45.4063 30.145 45.2984 30.4147 45.1906 30.6304C45.0827 30.8461 44.9209 31.0618 44.7592 31.2775C44.4356 31.7089 43.9503 32.1403 43.411 32.5717C43.1953 32.7335 42.9796 32.8414 42.7639 33.0031C42.5482 33.1649 42.2785 33.2728 42.0089 33.4346C39.5283 34.7288 35.9691 35.5916 32.0325 35.5916C31.2775 35.5916 30.5764 35.5377 29.8215 35.4838C29.8754 35.2681 29.8754 35.1063 29.8754 34.8906C29.8754 34.1356 29.6597 33.4346 29.3361 32.7335C29.3901 32.6796 29.3901 32.6257 29.3901 32.6257C30.2529 32.7335 31.1157 32.7335 32.0325 32.7335C34.2435 32.7335 36.3466 32.5178 38.234 32.0325C38.7194 31.9246 39.1508 31.8168 39.5822 31.655H39.6361C40.0136 31.5471 40.445 31.4393 40.7686 31.2775C41.7393 30.9 42.656 30.4686 43.4649 30.0372C43.6806 29.8754 43.8963 29.7136 44.112 29.6058H44.166C44.3817 29.444 44.5435 29.3361 44.7592 29.1743C45.0827 28.9586 45.3524 28.689 45.5681 28.4194C45.6759 28.689 45.6759 28.9047 45.6759 29.1743C45.6759 29.444 45.5141 29.6597 45.4602 29.9293ZM45.4602 25.6691C45.4063 25.8848 45.2984 26.1545 45.1906 26.3702C45.0827 26.5859 44.9209 26.8016 44.7592 27.0173C44.4356 27.4487 43.9503 27.8801 43.411 28.3115C43.1953 28.4733 42.9796 28.5812 42.7639 28.7429C42.5482 28.9047 42.2785 29.0126 42.0089 29.1743C40.9304 29.7675 39.6361 30.2529 38.234 30.5764C37.6408 30.7382 37.1016 30.8461 36.4544 30.9539C35.0524 31.1696 33.5963 31.3314 32.0864 31.3314C31.3314 31.3314 30.6304 31.2775 29.8754 31.2236C29.9293 31.0618 29.9293 30.9 29.9293 30.7382V30.6304C29.9293 30.4147 29.8754 30.199 29.8754 29.9832C29.8215 29.444 29.6597 28.9586 29.3901 28.4733C29.444 28.4194 29.444 28.3654 29.444 28.3654C30.3068 28.4733 31.1696 28.4733 32.0864 28.4733C34.2974 28.4733 36.4005 28.2576 38.288 27.7723C38.7733 27.6644 39.2047 27.5565 39.6361 27.3948H39.6901C40.0675 27.2869 40.499 27.1791 40.8225 27.0173C41.7932 26.6398 42.7099 26.2084 43.5188 25.777C43.7346 25.6152 43.9503 25.4534 44.166 25.3455H44.2199C44.4356 25.1838 44.5974 25.0759 44.8131 24.9141C45.1366 24.6984 45.4063 24.4288 45.622 24.1592C45.7298 24.4288 45.7298 24.6445 45.7298 24.9141C45.7298 25.1838 45.5141 25.3995 45.4602 25.6691ZM45.4602 21.4089C45.4063 21.6246 45.2984 21.8942 45.1906 22.1099C45.0827 22.3257 44.9209 22.5414 44.7592 22.7571C44.4356 23.1885 43.9503 23.6199 43.411 24.0513C43.1953 24.2131 42.9796 24.3209 42.7639 24.4827C42.5482 24.6445 42.2785 24.7524 42.0089 24.9141C40.9304 25.5073 39.6361 25.9927 38.234 26.3162C37.6408 26.478 37.1016 26.5859 36.4544 26.6937C35.0524 26.9094 33.5963 27.0712 32.0864 27.0712C31.3314 27.0712 30.6304 27.0173 29.8754 26.9634C29.9293 26.8016 29.9293 26.6398 29.9293 26.478V26.3702C29.9293 26.1545 29.8754 25.9387 29.8754 25.723C29.7675 25.1298 29.6058 24.5906 29.3361 24.1052C30.199 24.1592 31.1157 24.2131 32.0864 24.2131C34.2974 24.2131 36.4005 23.9974 38.288 23.512C38.7733 23.4042 39.2047 23.2963 39.6361 23.1346H39.6901C40.0675 23.0267 40.499 22.9188 40.8225 22.7571C41.7932 22.3796 42.7099 21.9482 43.5188 21.5168C43.7346 21.355 43.9503 21.1932 44.166 21.0853H44.2199C44.4356 20.9236 44.5974 20.8157 44.8131 20.6539C45.1366 20.4382 45.4063 20.1686 45.622 19.899C45.7298 20.1686 45.7298 20.3843 45.7298 20.6539C45.7298 20.9236 45.5141 21.1393 45.4602 21.4089ZM45.4602 17.1487C45.4063 17.3644 45.2984 17.634 45.1906 17.8497C45.0827 18.0654 44.9209 18.2812 44.7592 18.4969C44.4356 18.9283 43.9503 19.3597 43.411 19.7911C43.1953 19.9529 42.9796 20.0607 42.7639 20.2225C42.5482 20.3843 42.2785 20.4921 42.0089 20.6539C40.9304 21.2471 39.6361 21.7325 38.234 22.056C37.6408 22.2178 37.1016 22.3257 36.4544 22.4335C35.0524 22.6492 33.5963 22.811 32.0864 22.811C30.6843 22.811 29.3361 22.7031 28.0419 22.4874C27.988 22.3796 27.934 22.3796 27.8801 22.3796C27.6644 22.1639 27.3948 21.9482 27.1251 21.7864C26.1544 21.0314 24.9681 20.4382 23.6199 19.9529C23.2963 19.845 22.9728 19.7372 22.5953 19.6293C22.2717 19.5215 21.8942 19.4136 21.5168 19.3597C20.9236 19.1979 20.2764 19.0361 19.6293 18.9283C19.5215 18.8204 19.3597 18.7126 19.3058 18.5508C19.144 18.3351 18.9822 18.1194 18.8743 17.9037C18.7126 17.688 18.6586 17.4183 18.6047 17.2026C18.4969 16.933 18.4969 16.7173 18.4969 16.4476C18.4969 16.178 18.5508 15.9623 18.6047 15.6927C18.8743 15.9623 19.0901 16.2319 19.4136 16.4476C19.5754 16.6094 19.7911 16.7173 20.0068 16.8791H20.0607C20.2764 17.0408 20.4382 17.1487 20.7079 17.3105C21.5168 17.7419 22.3796 18.1733 23.4042 18.5508C23.7277 18.7126 24.1592 18.8204 24.5366 18.9283H24.5906C25.022 19.0901 25.4534 19.1979 25.9387 19.3058C27.8262 19.7372 29.8754 20.0068 32.1403 20.0068C34.4052 20.0068 36.4544 19.7911 38.3419 19.3058C38.8272 19.1979 39.2586 19.0901 39.6901 18.9283H39.744C40.1215 18.8204 40.5529 18.7126 40.8764 18.5508C41.8471 18.1733 42.7639 17.7419 43.5728 17.3105C43.7885 17.1487 44.0042 16.9869 44.2199 16.8791H44.2738C44.4895 16.7173 44.6513 16.6094 44.867 16.4476C45.1906 16.2319 45.4602 15.9623 45.6759 15.6927C45.7838 15.9623 45.7838 16.178 45.7838 16.4476C45.7838 16.7173 45.5141 16.8791 45.4602 17.1487ZM45.4602 12.8885C45.4063 13.1042 45.2984 13.3738 45.1906 13.5895C45.0827 13.8052 44.9209 14.0209 44.7592 14.2366C44.4356 14.6681 43.9503 15.0995 43.411 15.5309C43.1953 15.6927 42.9796 15.8005 42.7639 15.9623C42.5482 16.1241 42.2785 16.2319 42.0089 16.3937C40.9304 16.9869 39.6361 17.4722 38.234 17.7958C37.6408 17.9576 37.1016 18.0654 36.4544 18.1733C35.0524 18.389 33.5963 18.5508 32.0864 18.5508C30.5764 18.5508 29.1204 18.389 27.7183 18.1733H27.6644C27.0173 18.0654 26.478 17.9576 25.8848 17.7958C24.4827 17.4722 23.1885 16.9869 22.1099 16.3937C21.8403 16.2319 21.5707 16.1241 21.355 15.9623C21.1393 15.8005 20.9236 15.6927 20.7079 15.5309C20.1686 15.1534 19.7372 14.722 19.3597 14.2366C19.1979 14.0209 19.0361 13.8052 18.9283 13.5895C18.7665 13.3738 18.7126 13.1042 18.6586 12.8885C18.5508 12.6188 18.5508 12.4031 18.5508 12.1335C18.5508 11.8639 18.6047 11.6482 18.6586 11.3785C18.9283 11.6482 19.144 11.9178 19.4675 12.1335C19.6293 12.2953 19.845 12.4031 20.0607 12.5649H20.1147C20.3304 12.7267 20.4921 12.8346 20.7618 12.9963C21.5707 13.4277 22.4335 13.8592 23.4581 14.2366C23.7817 14.3984 24.2131 14.5063 24.5906 14.6141H24.6445C25.0759 14.7759 25.5073 14.8838 25.9927 14.9916C27.8801 15.423 29.9293 15.6927 32.1942 15.6927C34.4592 15.6927 36.5084 15.477 38.3958 14.9916C38.8811 14.8838 39.3126 14.7759 39.744 14.6141H39.7979C40.1754 14.5063 40.6068 14.3984 40.9304 14.2366C41.901 13.8592 42.8178 13.4277 43.6267 12.9963C43.8424 12.8346 44.0581 12.6728 44.2738 12.5649H44.3277C44.5435 12.4031 44.7052 12.2953 44.9209 12.1335C45.2445 11.9178 45.5141 11.6482 45.7298 11.3785C45.8377 11.6482 45.8377 11.8639 45.8377 12.1335C45.8377 12.4031 45.5141 12.6188 45.4602 12.8885ZM45.4602 8.57435C45.4063 8.79005 45.2984 9.05969 45.1906 9.27539C45.0827 9.4911 44.9209 9.70681 44.7592 9.92251C44.4356 10.3539 43.9503 10.7853 43.411 11.2168C43.1953 11.3785 42.9796 11.4864 42.7639 11.6482C42.5482 11.8099 42.2785 11.9178 42.0089 12.0796C40.9304 12.6728 39.6361 13.1581 38.234 13.4817C37.6408 13.6435 37.1016 13.7513 36.4544 13.8592C35.0524 14.0749 33.5963 14.2366 32.0864 14.2366C30.5764 14.2366 29.1204 14.0749 27.7183 13.8592H27.6644C27.0173 13.7513 26.478 13.6435 25.8848 13.4817C24.4827 13.1581 23.1885 12.6728 22.1099 12.0796C21.8403 11.9178 21.5707 11.8099 21.355 11.6482C21.1393 11.4864 20.9236 11.3785 20.7079 11.2168C20.1686 10.8393 19.7372 10.4079 19.3597 9.92251C19.1979 9.70681 19.0361 9.4911 18.9283 9.27539C18.7665 9.05969 18.7126 8.79005 18.6586 8.57435C18.5508 8.30471 18.5508 8.08901 18.5508 7.81937C18.5508 4.36806 24.7524 1.40209 32.0864 1.40209C39.4204 1.40209 45.5681 4.36806 45.5681 7.81937C45.5681 8.08901 45.5141 8.35864 45.4602 8.57435Z" fill="#AD8E52"/>
</svg>
