<svg width="168" height="54" viewBox="0 0 168 54" fill="none" xmlns="http://www.w3.org/2000/svg">
<path d="M0 0.42H4.14V21.42H0V0.42Z" fill="black"/>
<path d="M21.6773 0.42H25.8173V21.42H22.6673L13.6673 8.58V21.42H9.52734V0.42H12.6773L21.6773 13.23V0.42Z" fill="black"/>
<path d="M45.1029 0.42V4.38H39.4329V21.42H35.2929V4.38H29.6529V0.42H45.1029Z" fill="black"/>
<path d="M53.0541 17.46H61.9041V21.42H48.9141V0.42H61.7541V4.38H53.0541V8.85H61.0041V12.75H53.0541V17.46Z" fill="black"/>
<path d="M77.8423 21.42L73.6123 14.13H70.4623V21.42H66.3223V0.42H74.7223C76.6623 0.42 78.3123 1.1 79.6723 2.46C81.0323 3.82 81.7123 5.46 81.7123 7.38C81.7123 8.68 81.3423 9.89 80.6023 11.01C79.8623 12.11 78.8823 12.94 77.6623 13.5L82.3123 21.42H77.8423ZM70.4623 4.29V10.5H74.7223C75.5023 10.5 76.1723 10.2 76.7323 9.6C77.2923 8.98 77.5723 8.24 77.5723 7.38C77.5723 6.52 77.2923 5.79 76.7323 5.19C76.1723 4.59 75.5023 4.29 74.7223 4.29H70.4623Z" fill="black"/>
<path d="M86.25 0.42H90.39V21.42H86.25V0.42Z" fill="black"/>
<path d="M113.447 18.69C111.327 20.79 108.747 21.84 105.707 21.84C102.667 21.84 100.087 20.79 97.9673 18.69C95.8673 16.57 94.8173 13.98 94.8173 10.92C94.8173 7.86 95.8673 5.28 97.9673 3.18C100.087 1.06 102.667 0 105.707 0C108.747 0 111.327 1.06 113.447 3.18C115.567 5.28 116.627 7.86 116.627 10.92C116.627 13.98 115.567 16.57 113.447 18.69ZM100.877 15.87C102.177 17.15 103.787 17.79 105.707 17.79C107.627 17.79 109.237 17.15 110.537 15.87C111.837 14.57 112.487 12.92 112.487 10.92C112.487 8.92 111.837 7.27 110.537 5.97C109.237 4.67 107.627 4.02 105.707 4.02C103.787 4.02 102.177 4.67 100.877 5.97C99.5773 7.27 98.9273 8.92 98.9273 10.92C98.9273 12.92 99.5773 14.57 100.877 15.87Z" fill="black"/>
<path d="M132.557 21.42L128.327 14.13H125.177V21.42H121.037V0.42H129.437C131.377 0.42 133.027 1.1 134.387 2.46C135.747 3.82 136.427 5.46 136.427 7.38C136.427 8.68 136.057 9.89 135.317 11.01C134.577 12.11 133.597 12.94 132.377 13.5L137.027 21.42H132.557ZM125.177 4.29V10.5H129.437C130.217 10.5 130.887 10.2 131.447 9.6C132.007 8.98 132.287 8.24 132.287 7.38C132.287 6.52 132.007 5.79 131.447 5.19C130.887 4.59 130.217 4.29 129.437 4.29H125.177Z" fill="black"/>
<path d="M0.778809 46.1885C0.91097 48.152 1.39242 49.7427 2.22314 50.9604C3.05387 52.1688 4.33301 52.7729 6.06055 52.7729C6.72135 52.7729 7.33496 52.6361 7.90137 52.3623C8.47721 52.0885 8.93978 51.6637 9.28906 51.0879C9.64779 50.5026 9.82715 49.7757 9.82715 48.9072C9.82715 48.1615 9.64307 47.4959 9.2749 46.9106C8.91618 46.3159 8.42529 45.7731 7.80225 45.2822C7.1792 44.7913 6.34847 44.2344 5.31006 43.6113C4.15837 42.9222 3.23324 42.3039 2.53467 41.7563C1.8361 41.2088 1.26025 40.5575 0.807129 39.8022C0.363444 39.0376 0.141602 38.1408 0.141602 37.1118C0.141602 36.0168 0.387044 35.0916 0.87793 34.3364C1.37826 33.5812 2.03906 33.0195 2.86035 32.6514C3.69108 32.2738 4.60205 32.085 5.59326 32.085C6.18799 32.085 6.69775 32.1369 7.12256 32.2407C7.5568 32.3351 7.91553 32.4578 8.19873 32.6089C8.48193 32.7505 8.79346 32.9346 9.1333 33.1611C9.56755 33.4349 9.89795 33.5718 10.1245 33.5718C10.3039 33.5718 10.4408 33.4727 10.5352 33.2744C10.6296 33.0667 10.7051 32.741 10.7617 32.2974H11.4272C11.3328 33.4302 11.2856 35.4032 11.2856 38.2163H10.6201C10.5446 37.2251 10.3275 36.3094 9.96875 35.4692C9.61947 34.6291 9.10026 33.9494 8.41113 33.4302C7.73145 32.9015 6.88184 32.6372 5.8623 32.6372C5.18262 32.6372 4.57373 32.7788 4.03564 33.062C3.49756 33.3452 3.07747 33.7417 2.77539 34.2515C2.47331 34.7612 2.32227 35.3465 2.32227 36.0073C2.32227 37.0552 2.63851 37.9001 3.271 38.542C3.90348 39.1839 4.63981 39.7645 5.47998 40.2837C6.32959 40.7935 6.90072 41.138 7.19336 41.3174C8.41113 42.082 9.37402 42.7476 10.082 43.314C10.79 43.8709 11.3564 44.5223 11.7813 45.2681C12.2061 46.0044 12.4185 46.8634 12.4185 47.8452C12.4185 49.0347 12.1447 50.0448 11.5972 50.8755C11.0496 51.6968 10.3086 52.3151 9.37402 52.7305C8.44889 53.1458 7.41048 53.3535 6.25879 53.3535C5.33366 53.3535 4.57373 53.2544 3.979 53.0562C3.38428 52.8673 2.82259 52.6077 2.29395 52.2773C1.8597 52.0036 1.5293 51.8667 1.30273 51.8667C1.12337 51.8667 0.986491 51.9705 0.89209 52.1782C0.797689 52.3765 0.722168 52.6974 0.665527 53.1411H0C0.0755208 52.0838 0.113281 49.7663 0.113281 46.1885H0.778809Z" fill="#BAA170"/>
<path d="M26.0462 32C27.887 32 29.4965 32.4154 30.8748 33.2461C32.2625 34.0768 33.334 35.2852 34.0892 36.8711C34.8538 38.4476 35.2361 40.3262 35.2361 42.5068C35.2361 44.6403 34.8444 46.5283 34.0608 48.1709C33.2773 49.8135 32.187 51.0879 30.7898 51.9941C29.3927 52.9004 27.802 53.3535 26.0179 53.3535C24.177 53.3535 22.5628 52.9382 21.1751 52.1074C19.7968 51.2767 18.7254 50.0731 17.9607 48.4966C17.2055 46.9106 16.8279 45.0273 16.8279 42.8467C16.8279 40.7132 17.2197 38.8252 18.0032 37.1826C18.7868 35.54 19.8771 34.2656 21.2742 33.3594C22.6714 32.4531 24.262 32 26.0462 32ZM25.9329 32.5239C24.6963 32.5239 23.6059 32.9582 22.6619 33.8267C21.7179 34.6857 20.991 35.8893 20.4812 37.4375C19.9715 38.9762 19.7166 40.7415 19.7166 42.7334C19.7166 44.7441 19.9998 46.5142 20.5662 48.0435C21.1326 49.5728 21.902 50.7528 22.8743 51.5835C23.8561 52.4142 24.9417 52.8296 26.1312 52.8296C27.3678 52.8296 28.4534 52.4001 29.388 51.541C30.332 50.6725 31.0589 49.4689 31.5687 47.9302C32.0784 46.382 32.3333 44.612 32.3333 42.6201C32.3333 40.6094 32.0501 38.8394 31.4837 37.3101C30.9173 35.7808 30.1479 34.6007 29.1756 33.77C28.2033 32.9393 27.1224 32.5239 25.9329 32.5239Z" fill="#BAA170"/>
<path d="M46.6124 32.9912C45.9138 33.0195 45.4041 33.0951 45.0831 33.2178C44.7716 33.3405 44.5545 33.5671 44.4317 33.8975C44.3185 34.2279 44.2618 34.7565 44.2618 35.4834V49.8701C44.2618 50.597 44.3185 51.1257 44.4317 51.4561C44.5545 51.777 44.7716 51.9941 45.0831 52.1074C45.4041 52.2207 45.9138 52.2773 46.6124 52.2773H48.7364C49.9448 52.2773 50.8605 52.1074 51.4835 51.7676C52.116 51.4277 52.5691 50.8849 52.8429 50.1392C53.1261 49.3934 53.3432 48.2983 53.4942 46.854H54.1598C54.1031 47.4582 54.0748 48.2511 54.0748 49.2329C54.0748 50.328 54.1409 51.5646 54.273 52.9429C52.9609 52.8862 50.7472 52.8579 47.6319 52.8579C43.922 52.8579 41.1183 52.8862 39.2208 52.9429V52.3623C39.9194 52.334 40.4244 52.2585 40.7359 52.1357C41.0569 52.013 41.274 51.7865 41.3873 51.4561C41.51 51.1257 41.5714 50.597 41.5714 49.8701V35.4834C41.5714 34.7565 41.51 34.2279 41.3873 33.8975C41.274 33.5671 41.0569 33.3405 40.7359 33.2178C40.4244 33.0951 39.9194 33.0195 39.2208 32.9912V32.4106C40.0232 32.4673 41.2599 32.4956 42.9308 32.4956C44.4978 32.4956 45.725 32.4673 46.6124 32.4106V32.9912Z" fill="#BAA170"/>
<path d="M75.4906 32.9912C74.8204 33.0195 74.3201 33.1187 73.9896 33.2886C73.6687 33.4491 73.4468 33.7181 73.3241 34.0957C73.2108 34.4733 73.1542 35.035 73.1542 35.7808V44.5034C73.1542 45.8911 73.0598 47.0853 72.871 48.0859C72.6916 49.0771 72.3895 49.9315 71.9647 50.6489C71.4739 51.4797 70.7564 52.1405 69.8124 52.6313C68.8778 53.1128 67.8253 53.3535 66.6547 53.3535C64.5307 53.3535 62.907 52.8296 61.7836 51.7817C61.2077 51.2437 60.7641 50.6772 60.4525 50.0825C60.1505 49.4784 59.9381 48.7515 59.8153 47.9019C59.6926 47.0522 59.6312 45.9478 59.6312 44.5884V35.4834C59.6312 34.7565 59.5699 34.2279 59.4472 33.8975C59.3339 33.5671 59.1168 33.3405 58.7958 33.2178C58.4843 33.0951 57.9792 33.0195 57.2807 32.9912V32.4106C58.102 32.4673 59.3386 32.4956 60.9906 32.4956C62.5482 32.4956 63.7802 32.4673 64.6864 32.4106V32.9912C63.9879 33.0195 63.4781 33.0951 63.1571 33.2178C62.8456 33.3405 62.6285 33.5671 62.5058 33.8975C62.3925 34.2279 62.3358 34.7565 62.3358 35.4834V45.084C62.3358 46.6322 62.4397 47.916 62.6474 48.9355C62.855 49.9551 63.2893 50.7764 63.9501 51.3994C64.6203 52.0225 65.6068 52.334 66.9096 52.334C68.9581 52.334 70.3977 51.6779 71.2284 50.3657C72.0591 49.0535 72.4745 47.208 72.4745 44.8291V35.7808C72.4745 35.0633 72.3895 34.5111 72.2196 34.124C72.0591 33.737 71.7901 33.4585 71.4125 33.2886C71.0443 33.1187 70.5204 33.0195 69.8407 32.9912V32.4106C70.5393 32.4673 71.5258 32.4956 72.8002 32.4956C73.9613 32.4956 74.8581 32.4673 75.4906 32.4106V32.9912Z" fill="#BAA170"/>
<path d="M78.7106 38.4995C78.7673 37.8859 78.7956 37.0929 78.7956 36.1206C78.7956 34.9878 78.7248 33.7511 78.5832 32.4106C80.188 32.4673 82.9162 32.4956 86.7678 32.4956C90.591 32.4956 93.305 32.4673 94.9099 32.4106C94.7777 33.7889 94.7116 35.0256 94.7116 36.1206C94.7116 37.0929 94.7399 37.8859 94.7966 38.4995H94.1311C93.98 36.9985 93.7865 35.8893 93.5505 35.1719C93.3239 34.445 92.918 33.9163 92.3327 33.5859C91.7569 33.2461 90.8695 33.0762 89.6706 33.0762H88.0988V49.5728C88.0988 50.3752 88.1743 50.9652 88.3254 51.3428C88.4764 51.7109 88.7502 51.9658 89.1467 52.1074C89.5432 52.249 90.1709 52.334 91.03 52.3623V52.9429C90.0104 52.8862 88.5897 52.8579 86.7678 52.8579C84.8326 52.8579 83.4024 52.8862 82.4772 52.9429V52.3623C83.3363 52.334 83.9641 52.249 84.3605 52.1074C84.757 51.9658 85.0308 51.7109 85.1818 51.3428C85.3329 50.9652 85.4084 50.3752 85.4084 49.5728V33.0762H83.8366C82.6377 33.0762 81.7456 33.2461 81.1603 33.5859C80.5845 33.9163 80.1786 34.445 79.9426 35.1719C79.716 35.8893 79.5272 36.9985 79.3762 38.4995H78.7106Z" fill="#BAA170"/>
<path d="M105.819 32.9912C105.12 33.0195 104.611 33.0951 104.29 33.2178C103.978 33.3405 103.761 33.5671 103.638 33.8975C103.525 34.2279 103.468 34.7565 103.468 35.4834V49.8701C103.468 50.597 103.525 51.1257 103.638 51.4561C103.761 51.7865 103.978 52.013 104.29 52.1357C104.611 52.2585 105.12 52.334 105.819 52.3623V52.9429C104.931 52.8862 103.704 52.8579 102.137 52.8579C100.476 52.8579 99.2391 52.8862 98.4272 52.9429V52.3623C99.1258 52.334 99.6309 52.2585 99.9424 52.1357C100.263 52.013 100.48 51.7865 100.594 51.4561C100.716 51.1257 100.778 50.597 100.778 49.8701V35.4834C100.778 34.7565 100.716 34.2279 100.594 33.8975C100.48 33.5671 100.263 33.3405 99.9424 33.2178C99.6309 33.0951 99.1258 33.0195 98.4272 32.9912V32.4106C99.2297 32.4673 100.466 32.4956 102.137 32.4956C103.704 32.4956 104.931 32.4673 105.819 32.4106V32.9912Z" fill="#BAA170"/>
<path d="M119.022 32C120.863 32 122.472 32.4154 123.85 33.2461C125.238 34.0768 126.31 35.2852 127.065 36.8711C127.829 38.4476 128.212 40.3262 128.212 42.5068C128.212 44.6403 127.82 46.5283 127.036 48.1709C126.253 49.8135 125.163 51.0879 123.765 51.9941C122.368 52.9004 120.778 53.3535 118.993 53.3535C117.153 53.3535 115.538 52.9382 114.151 52.1074C112.772 51.2767 111.701 50.0731 110.936 48.4966C110.181 46.9106 109.804 45.0273 109.804 42.8467C109.804 40.7132 110.195 38.8252 110.979 37.1826C111.762 35.54 112.853 34.2656 114.25 33.3594C115.647 32.4531 117.238 32 119.022 32ZM118.909 32.5239C117.672 32.5239 116.582 32.9582 115.638 33.8267C114.693 34.6857 113.967 35.8893 113.457 37.4375C112.947 38.9762 112.692 40.7415 112.692 42.7334C112.692 44.7441 112.975 46.5142 113.542 48.0435C114.108 49.5728 114.878 50.7528 115.85 51.5835C116.832 52.4142 117.917 52.8296 119.107 52.8296C120.343 52.8296 121.429 52.4001 122.364 51.541C123.308 50.6725 124.034 49.4689 124.544 47.9302C125.054 46.382 125.309 44.612 125.309 42.6201C125.309 40.6094 125.026 38.8394 124.459 37.3101C123.893 35.7808 123.124 34.6007 122.151 33.77C121.179 32.9393 120.098 32.5239 118.909 32.5239Z" fill="#BAA170"/>
<path d="M150.406 32.9912C149.736 33.0195 149.236 33.1187 148.905 33.2886C148.584 33.4491 148.363 33.7181 148.24 34.0957C148.117 34.4733 148.056 35.035 148.056 35.7808V53.0845H147.39L135.213 34.2656V49.5728C135.213 50.3185 135.279 50.8802 135.411 51.2578C135.543 51.6354 135.788 51.9092 136.147 52.0791C136.515 52.2396 137.082 52.334 137.846 52.3623V52.9429C137.157 52.8862 136.171 52.8579 134.887 52.8579C133.735 52.8579 132.838 52.8862 132.196 52.9429V52.3623C132.867 52.334 133.362 52.2396 133.683 52.0791C134.014 51.9092 134.24 51.6354 134.363 51.2578C134.486 50.8802 134.547 50.3185 134.547 49.5728V35.4834C134.547 34.7565 134.486 34.2279 134.363 33.8975C134.25 33.5671 134.033 33.3405 133.712 33.2178C133.4 33.0951 132.895 33.0195 132.196 32.9912V32.4106C132.829 32.4673 133.726 32.4956 134.887 32.4956C135.755 32.4956 136.511 32.4673 137.152 32.4106L147.39 48.1851V35.7808C147.39 35.035 147.324 34.4733 147.192 34.0957C147.069 33.7181 146.824 33.4491 146.456 33.2886C146.088 33.1187 145.521 33.0195 144.756 32.9912V32.4106C145.446 32.4673 146.432 32.4956 147.716 32.4956C148.868 32.4956 149.764 32.4673 150.406 32.4106V32.9912Z" fill="#BAA170"/>
<path d="M155.51 46.1885C155.642 48.152 156.123 49.7427 156.954 50.9604C157.785 52.1688 159.064 52.7729 160.791 52.7729C161.452 52.7729 162.066 52.6361 162.632 52.3623C163.208 52.0885 163.671 51.6637 164.02 51.0879C164.379 50.5026 164.558 49.7757 164.558 48.9072C164.558 48.1615 164.374 47.4959 164.006 46.9106C163.647 46.3159 163.156 45.7731 162.533 45.2822C161.91 44.7913 161.079 44.2344 160.041 43.6113C158.889 42.9222 157.964 42.3039 157.266 41.7563C156.567 41.2088 155.991 40.5575 155.538 39.8022C155.094 39.0376 154.872 38.1408 154.872 37.1118C154.872 36.0168 155.118 35.0916 155.609 34.3364C156.109 33.5812 156.77 33.0195 157.591 32.6514C158.422 32.2738 159.333 32.085 160.324 32.085C160.919 32.085 161.429 32.1369 161.853 32.2407C162.288 32.3351 162.646 32.4578 162.93 32.6089C163.213 32.7505 163.524 32.9346 163.864 33.1611C164.298 33.4349 164.629 33.5718 164.855 33.5718C165.035 33.5718 165.172 33.4727 165.266 33.2744C165.36 33.0667 165.436 32.741 165.493 32.2974H166.158C166.064 33.4302 166.017 35.4032 166.017 38.2163H165.351C165.275 37.2251 165.058 36.3094 164.7 35.4692C164.35 34.6291 163.831 33.9494 163.142 33.4302C162.462 32.9015 161.613 32.6372 160.593 32.6372C159.913 32.6372 159.305 32.7788 158.767 33.062C158.228 33.3452 157.808 33.7417 157.506 34.2515C157.204 34.7612 157.053 35.3465 157.053 36.0073C157.053 37.0552 157.369 37.9001 158.002 38.542C158.634 39.1839 159.371 39.7645 160.211 40.2837C161.06 40.7935 161.632 41.138 161.924 41.3174C163.142 42.082 164.105 42.7476 164.813 43.314C165.521 43.8709 166.087 44.5223 166.512 45.2681C166.937 46.0044 167.149 46.8634 167.149 47.8452C167.149 49.0347 166.876 50.0448 166.328 50.8755C165.781 51.6968 165.039 52.3151 164.105 52.7305C163.18 53.1458 162.141 53.3535 160.99 53.3535C160.065 53.3535 159.305 53.2544 158.71 53.0562C158.115 52.8673 157.553 52.6077 157.025 52.2773C156.591 52.0036 156.26 51.8667 156.034 51.8667C155.854 51.8667 155.717 51.9705 155.623 52.1782C155.529 52.3765 155.453 52.6974 155.396 53.1411H154.731C154.806 52.0838 154.844 49.7663 154.844 46.1885H155.51Z" fill="#BAA170"/>
</svg>
