<svg width="18" height="24" viewBox="0 0 18 24" fill="none" xmlns="http://www.w3.org/2000/svg">
<path d="M8.74392 5.01472C6.62788 5.01472 4.88867 6.75393 4.88867 8.89895C4.88867 11.044 6.62788 12.7832 8.74392 12.7832C10.86 12.7832 12.5992 11.044 12.5992 8.89895C12.5992 6.75393 10.86 5.01472 8.74392 5.01472ZM8.74392 10.7541C7.72938 10.7541 6.91775 9.91349 6.91775 8.89895C6.91775 7.88441 7.72938 7.04379 8.74392 7.04379C9.75846 7.04379 10.5701 7.88441 10.5701 8.89895C10.5701 9.91349 9.75846 10.7541 8.74392 10.7541Z" fill="#B79C68"/>
<path d="M8.74457 0C4.16465 0 0.338392 3.68133 0.0195364 8.37719C-0.125398 10.4642 0.5413 12.5803 1.84571 14.3485L7.90395 23.0445C8.10686 23.3054 8.39673 23.4793 8.74457 23.4793C9.09241 23.4793 9.38228 23.3054 9.58519 23.0445L15.6434 14.3485C16.9768 12.5803 17.6145 10.4353 17.4696 8.37719C17.1507 3.68133 13.3245 0 8.74457 0ZM14.0202 13.16C13.9912 13.16 13.9912 13.16 14.0202 13.16L8.74457 20.6966L3.49796 13.189C3.49796 13.189 3.49796 13.16 3.46897 13.16C2.42544 11.7687 1.90368 10.1164 2.01963 8.52213C2.22254 5.33358 4.80236 2.05806 8.71558 2.05806C12.6288 2.05806 15.2086 5.36256 15.4115 8.52213C15.5565 10.1164 15.0347 11.7687 14.0202 13.16Z" fill="#B79C68"/>
</svg>
