<svg width="251" height="95" viewBox="0 0 251 95" fill="none" xmlns="http://www.w3.org/2000/svg">
<path d="M25.0848 88.424H26.3808C26.7048 88.424 26.8668 88.262 26.8668 87.938V77.246C26.8668 77.078 26.8248 76.958 26.7408 76.886C26.6688 76.802 26.5488 76.76 26.3808 76.76H25.0848V76.184H30.3048V76.76H29.0088C28.8408 76.76 28.7148 76.802 28.6308 76.886C28.5588 76.958 28.5228 77.078 28.5228 77.246V87.938C28.5228 88.262 28.6848 88.424 29.0088 88.424H30.3048V89H25.0848V88.424ZM34.7427 78.146H34.6707V86.984C34.6707 87.428 34.7727 87.782 34.9767 88.046C35.1927 88.298 35.4687 88.424 35.8047 88.424H36.4527V89H32.1687V88.424H32.8167C33.1647 88.424 33.4407 88.298 33.6447 88.046C33.8487 87.782 33.9507 87.428 33.9507 86.984V77.246C33.9387 77.078 33.8967 76.958 33.8247 76.886C33.7527 76.802 33.6327 76.76 33.4647 76.76H32.1687V76.184H35.5707L41.8167 86.228V78.2C41.8167 77.756 41.7147 77.408 41.5107 77.156C41.3067 76.892 41.0367 76.76 40.7007 76.76H40.0527V76.184H44.3367V76.76H43.6887C43.3527 76.76 43.0767 76.892 42.8607 77.156C42.6447 77.408 42.5367 77.756 42.5367 78.2V89.324H41.8167L34.7427 78.146ZM48.4683 88.424H50.1963C50.5203 88.424 50.6823 88.262 50.6823 87.938V77.192C50.6823 77.024 50.6463 76.904 50.5743 76.832C50.5023 76.748 50.3763 76.706 50.1963 76.706H49.5483C48.7923 76.706 48.1383 77.09 47.5863 77.858C47.2383 78.35 47.0043 78.968 46.8843 79.712C46.7643 80.444 46.7043 80.984 46.7043 81.332H46.2003L46.3443 76.184H56.6763L56.8203 81.332H56.3163C56.3163 80.984 56.2563 80.444 56.1363 79.712C56.0163 78.968 55.7823 78.35 55.4343 77.858C54.8823 77.09 54.2283 76.706 53.4723 76.706H52.8243C52.6443 76.706 52.5183 76.748 52.4463 76.832C52.3743 76.904 52.3383 77.024 52.3383 77.192V87.938C52.3383 88.262 52.5003 88.424 52.8243 88.424H54.5523V89H48.4683V88.424ZM58.8699 88.424H60.1659C60.4899 88.424 60.6519 88.262 60.6519 87.938V77.246C60.6519 77.078 60.6099 76.958 60.5259 76.886C60.4539 76.802 60.3339 76.76 60.1659 76.76H58.8699V76.184H68.9139L68.9859 80.684H68.5359C68.5359 80.444 68.4819 80.036 68.3739 79.46C68.2779 78.884 68.0799 78.368 67.7799 77.912C67.2759 77.144 66.5679 76.76 65.6559 76.76H62.7939C62.6259 76.76 62.4999 76.802 62.4159 76.886C62.3439 76.958 62.3079 77.078 62.3079 77.246V82.088H63.6939C64.3059 82.088 64.7439 81.776 65.0079 81.152C65.2839 80.528 65.4219 79.862 65.4219 79.154H65.8899V85.598H65.4219C65.4219 84.89 65.2839 84.224 65.0079 83.6C64.7439 82.976 64.3059 82.664 63.6939 82.664H62.3079V87.938C62.3079 88.262 62.4699 88.424 62.7939 88.424H65.6739C66.0219 88.424 66.3759 88.346 66.7359 88.19C67.0959 88.034 67.4019 87.794 67.6539 87.47C67.8939 87.134 68.0919 86.714 68.2479 86.21C68.4039 85.706 68.5119 85.25 68.5719 84.842C68.6319 84.422 68.6679 84.152 68.6799 84.032H69.1299L68.9139 89H58.8699V88.424ZM80.6216 89.216C80.2256 89.216 79.8896 89.15 79.6136 89.018C79.3496 88.886 79.1396 88.67 78.9836 88.37C78.6596 87.746 78.4856 86.684 78.4616 85.184C78.4496 84.38 78.3056 83.714 78.0296 83.186C77.7536 82.646 77.3096 82.376 76.6976 82.376H74.7356V87.938C74.7356 88.106 74.7716 88.232 74.8436 88.316C74.9156 88.388 75.0416 88.424 75.2216 88.424H76.8236V89H71.2976V88.424H72.5936C72.9176 88.424 73.0796 88.262 73.0796 87.938V77.246C73.0796 77.078 73.0376 76.958 72.9536 76.886C72.8816 76.802 72.7616 76.76 72.5936 76.76H71.2976V76.184H77.2016C78.3656 76.184 79.3196 76.406 80.0636 76.85C80.8076 77.294 81.1796 78.032 81.1796 79.064C81.1796 79.952 80.8436 80.666 80.1716 81.206C79.5116 81.746 78.7136 82.064 77.7776 82.16V82.232C78.4616 82.364 79.0196 82.682 79.4516 83.186C79.8956 83.678 80.1896 84.524 80.3336 85.724C80.4176 86.408 80.4896 86.906 80.5496 87.218C80.6216 87.53 80.7056 87.752 80.8016 87.884C80.9096 88.004 81.0656 88.064 81.2696 88.064C81.7856 88.064 82.0436 87.416 82.0436 86.12H82.4936C82.4936 86.9 82.3796 87.614 82.1516 88.262C81.9236 88.898 81.4136 89.216 80.6216 89.216ZM76.4816 81.8C77.4896 81.8 78.2036 81.56 78.6236 81.08C79.0556 80.588 79.2716 79.916 79.2716 79.064C79.2716 78.332 79.0736 77.768 78.6776 77.372C78.2936 76.964 77.7656 76.76 77.0936 76.76H75.2216C75.0536 76.76 74.9276 76.802 74.8436 76.886C74.7716 76.958 74.7356 77.078 74.7356 77.246V81.8H76.4816ZM84.1824 88.424H85.4784C85.8024 88.424 85.9644 88.262 85.9644 87.938V77.246C85.9644 77.078 85.9224 76.958 85.8384 76.886C85.7664 76.802 85.6464 76.76 85.4784 76.76H84.1824V76.184H89.4024V76.76H88.1064C87.9384 76.76 87.8124 76.802 87.7284 76.886C87.6564 76.958 87.6204 77.078 87.6204 77.246V87.938C87.6204 88.262 87.7824 88.424 88.1064 88.424H89.4024V89H84.1824V88.424ZM96.6304 89.324C95.6224 89.324 94.7224 89.006 93.9304 88.37C93.1384 87.734 92.5204 86.9 92.0764 85.868C91.6324 84.824 91.4104 83.732 91.4104 82.592C91.4104 81.452 91.6324 80.366 92.0764 79.334C92.5204 78.29 93.1384 77.45 93.9304 76.814C94.7224 76.178 95.6224 75.86 96.6304 75.86C97.6384 75.86 98.5384 76.178 99.3304 76.814C100.122 77.45 100.74 78.29 101.184 79.334C101.628 80.366 101.85 81.452 101.85 82.592C101.85 83.732 101.628 84.824 101.184 85.868C100.74 86.9 100.122 87.734 99.3304 88.37C98.5384 89.006 97.6384 89.324 96.6304 89.324ZM96.6304 88.748C97.8064 88.748 98.6524 88.214 99.1684 87.146C99.6844 86.066 99.9424 84.548 99.9424 82.592C99.9424 80.624 99.6844 79.106 99.1684 78.038C98.6524 76.97 97.8064 76.436 96.6304 76.436C95.4544 76.436 94.6084 76.97 94.0924 78.038C93.5764 79.106 93.3184 80.624 93.3184 82.592C93.3184 84.548 93.5764 86.066 94.0924 87.146C94.6084 88.214 95.4544 88.748 96.6304 88.748ZM113.194 89.216C112.798 89.216 112.462 89.15 112.186 89.018C111.922 88.886 111.712 88.67 111.556 88.37C111.232 87.746 111.058 86.684 111.034 85.184C111.022 84.38 110.878 83.714 110.602 83.186C110.326 82.646 109.882 82.376 109.27 82.376H107.308V87.938C107.308 88.106 107.344 88.232 107.416 88.316C107.488 88.388 107.614 88.424 107.794 88.424H109.396V89H103.87V88.424H105.166C105.49 88.424 105.652 88.262 105.652 87.938V77.246C105.652 77.078 105.61 76.958 105.526 76.886C105.454 76.802 105.334 76.76 105.166 76.76H103.87V76.184H109.774C110.938 76.184 111.892 76.406 112.636 76.85C113.38 77.294 113.752 78.032 113.752 79.064C113.752 79.952 113.416 80.666 112.744 81.206C112.084 81.746 111.286 82.064 110.35 82.16V82.232C111.034 82.364 111.592 82.682 112.024 83.186C112.468 83.678 112.762 84.524 112.906 85.724C112.99 86.408 113.062 86.906 113.122 87.218C113.194 87.53 113.278 87.752 113.374 87.884C113.482 88.004 113.638 88.064 113.842 88.064C114.358 88.064 114.616 87.416 114.616 86.12H115.066C115.066 86.9 114.952 87.614 114.724 88.262C114.496 88.898 113.986 89.216 113.194 89.216ZM109.054 81.8C110.062 81.8 110.776 81.56 111.196 81.08C111.628 80.588 111.844 79.916 111.844 79.064C111.844 78.332 111.646 77.768 111.25 77.372C110.866 76.964 110.338 76.76 109.666 76.76H107.794C107.626 76.76 107.5 76.802 107.416 76.886C107.344 76.958 107.308 77.078 107.308 77.246V81.8H109.054ZM127.002 89.324C126.498 89.324 126 89.216 125.508 89C125.028 88.772 124.608 88.526 124.248 88.262C123.744 87.878 123.444 87.686 123.348 87.686C123.108 87.686 122.952 87.944 122.88 88.46L122.808 89.18H122.394L122.268 83.492H122.7C122.772 84.38 123.018 85.232 123.438 86.048C123.87 86.852 124.404 87.506 125.04 88.01C125.676 88.502 126.33 88.748 127.002 88.748C127.986 88.748 128.7 88.508 129.144 88.028C129.6 87.548 129.828 86.972 129.828 86.3C129.828 85.712 129.654 85.25 129.306 84.914C128.97 84.578 128.472 84.278 127.812 84.014L125.076 82.916C124.128 82.532 123.426 82.04 122.97 81.44C122.526 80.828 122.304 80.096 122.304 79.244C122.304 78.092 122.64 77.24 123.312 76.688C123.984 76.136 124.824 75.86 125.832 75.86C126.624 75.86 127.5 76.22 128.46 76.94C128.58 77.024 128.7 77.102 128.82 77.174C128.94 77.234 129.048 77.264 129.144 77.264C129.348 77.264 129.468 77.12 129.504 76.832L129.576 76.184H130.008L130.188 80.864H129.756C129.564 80 129.258 79.232 128.838 78.56C128.43 77.888 127.95 77.366 127.398 76.994C126.846 76.622 126.276 76.436 125.688 76.436C125.016 76.436 124.464 76.658 124.032 77.102C123.6 77.534 123.384 78.14 123.384 78.92C123.384 79.46 123.522 79.88 123.798 80.18C124.074 80.48 124.482 80.738 125.022 80.954L128.496 82.34C129.3 82.664 129.9 83.126 130.296 83.726C130.704 84.326 130.908 84.956 130.908 85.616C130.908 86.252 130.764 86.852 130.476 87.416C130.2 87.98 129.768 88.442 129.18 88.802C128.604 89.15 127.878 89.324 127.002 89.324ZM138.326 89.324C137.318 89.324 136.418 89.006 135.626 88.37C134.834 87.734 134.216 86.9 133.772 85.868C133.328 84.824 133.106 83.732 133.106 82.592C133.106 81.452 133.328 80.366 133.772 79.334C134.216 78.29 134.834 77.45 135.626 76.814C136.418 76.178 137.318 75.86 138.326 75.86C139.334 75.86 140.234 76.178 141.026 76.814C141.818 77.45 142.436 78.29 142.88 79.334C143.324 80.366 143.546 81.452 143.546 82.592C143.546 83.732 143.324 84.824 142.88 85.868C142.436 86.9 141.818 87.734 141.026 88.37C140.234 89.006 139.334 89.324 138.326 89.324ZM138.326 88.748C139.502 88.748 140.348 88.214 140.864 87.146C141.38 86.066 141.638 84.548 141.638 82.592C141.638 80.624 141.38 79.106 140.864 78.038C140.348 76.97 139.502 76.436 138.326 76.436C137.15 76.436 136.304 76.97 135.788 78.038C135.272 79.106 135.014 80.624 135.014 82.592C135.014 84.548 135.272 86.066 135.788 87.146C136.304 88.214 137.15 88.748 138.326 88.748ZM145.565 88.424H146.861C147.185 88.424 147.347 88.262 147.347 87.938V77.246C147.347 77.078 147.305 76.958 147.221 76.886C147.149 76.802 147.029 76.76 146.861 76.76H145.565V76.184H151.073V76.76H149.489C149.321 76.76 149.195 76.802 149.111 76.886C149.039 76.958 149.003 77.078 149.003 77.246V87.938C149.003 88.262 149.165 88.424 149.489 88.424H151.307C151.943 88.424 152.513 88.28 153.017 87.992C153.521 87.704 153.899 87.284 154.151 86.732C154.343 86.324 154.499 85.892 154.619 85.436C154.751 84.968 154.847 84.572 154.907 84.248C154.967 83.924 155.003 83.72 155.015 83.636H155.465L155.303 89H145.565V88.424ZM162.888 89.324C161.808 89.324 160.914 89.114 160.206 88.694C159.498 88.262 158.976 87.704 158.64 87.02C158.316 86.324 158.154 85.562 158.154 84.734V77.246C158.154 77.078 158.112 76.958 158.028 76.886C157.956 76.802 157.836 76.76 157.668 76.76H156.372V76.184H161.61V76.76H160.296C160.128 76.76 160.002 76.802 159.918 76.886C159.846 76.958 159.81 77.078 159.81 77.246V85.22C159.81 86.336 160.08 87.206 160.62 87.83C161.16 88.442 161.916 88.748 162.888 88.748C163.644 88.748 164.292 88.598 164.832 88.298C165.372 87.986 165.78 87.578 166.056 87.074C166.332 86.57 166.47 86.024 166.47 85.436V78.218C166.47 77.774 166.362 77.42 166.146 77.156C165.93 76.892 165.654 76.76 165.318 76.76H164.688V76.184H168.972V76.76H168.342C168.006 76.76 167.73 76.892 167.514 77.156C167.298 77.42 167.19 77.774 167.19 78.218V85.256C167.19 86.012 167.016 86.702 166.668 87.326C166.332 87.938 165.834 88.424 165.174 88.784C164.526 89.144 163.764 89.324 162.888 89.324ZM173.044 88.424H174.772C175.096 88.424 175.258 88.262 175.258 87.938V77.192C175.258 77.024 175.222 76.904 175.15 76.832C175.078 76.748 174.952 76.706 174.772 76.706H174.124C173.368 76.706 172.714 77.09 172.162 77.858C171.814 78.35 171.58 78.968 171.46 79.712C171.34 80.444 171.28 80.984 171.28 81.332H170.776L170.92 76.184H181.252L181.396 81.332H180.892C180.892 80.984 180.832 80.444 180.712 79.712C180.592 78.968 180.358 78.35 180.01 77.858C179.458 77.09 178.804 76.706 178.048 76.706H177.4C177.22 76.706 177.094 76.748 177.022 76.832C176.95 76.904 176.914 77.024 176.914 77.192V87.938C176.914 88.262 177.076 88.424 177.4 88.424H179.128V89H173.044V88.424ZM183.446 88.424H184.742C185.066 88.424 185.228 88.262 185.228 87.938V77.246C185.228 77.078 185.186 76.958 185.102 76.886C185.03 76.802 184.91 76.76 184.742 76.76H183.446V76.184H188.666V76.76H187.37C187.202 76.76 187.076 76.802 186.992 76.886C186.92 76.958 186.884 77.078 186.884 77.246V87.938C186.884 88.262 187.046 88.424 187.37 88.424H188.666V89H183.446V88.424ZM195.894 89.324C194.886 89.324 193.986 89.006 193.194 88.37C192.402 87.734 191.784 86.9 191.34 85.868C190.896 84.824 190.674 83.732 190.674 82.592C190.674 81.452 190.896 80.366 191.34 79.334C191.784 78.29 192.402 77.45 193.194 76.814C193.986 76.178 194.886 75.86 195.894 75.86C196.902 75.86 197.802 76.178 198.594 76.814C199.386 77.45 200.004 78.29 200.448 79.334C200.892 80.366 201.114 81.452 201.114 82.592C201.114 83.732 200.892 84.824 200.448 85.868C200.004 86.9 199.386 87.734 198.594 88.37C197.802 89.006 196.902 89.324 195.894 89.324ZM195.894 88.748C197.07 88.748 197.916 88.214 198.432 87.146C198.948 86.066 199.206 84.548 199.206 82.592C199.206 80.624 198.948 79.106 198.432 78.038C197.916 76.97 197.07 76.436 195.894 76.436C194.718 76.436 193.872 76.97 193.356 78.038C192.84 79.106 192.582 80.624 192.582 82.592C192.582 84.548 192.84 86.066 193.356 87.146C193.872 88.214 194.718 88.748 195.894 88.748ZM205.708 78.146H205.636V86.984C205.636 87.428 205.738 87.782 205.942 88.046C206.158 88.298 206.434 88.424 206.77 88.424H207.418V89H203.134V88.424H203.782C204.13 88.424 204.406 88.298 204.61 88.046C204.814 87.782 204.916 87.428 204.916 86.984V77.246C204.904 77.078 204.862 76.958 204.79 76.886C204.718 76.802 204.598 76.76 204.43 76.76H203.134V76.184H206.536L212.782 86.228V78.2C212.782 77.756 212.68 77.408 212.476 77.156C212.272 76.892 212.002 76.76 211.666 76.76H211.018V76.184H215.302V76.76H214.654C214.318 76.76 214.042 76.892 213.826 77.156C213.61 77.408 213.502 77.756 213.502 78.2V89.324H212.782L205.708 78.146ZM222.187 89.324C221.683 89.324 221.185 89.216 220.693 89C220.213 88.772 219.793 88.526 219.433 88.262C218.929 87.878 218.629 87.686 218.533 87.686C218.293 87.686 218.137 87.944 218.065 88.46L217.993 89.18H217.579L217.453 83.492H217.885C217.957 84.38 218.203 85.232 218.623 86.048C219.055 86.852 219.589 87.506 220.225 88.01C220.861 88.502 221.515 88.748 222.187 88.748C223.171 88.748 223.885 88.508 224.329 88.028C224.785 87.548 225.013 86.972 225.013 86.3C225.013 85.712 224.839 85.25 224.491 84.914C224.155 84.578 223.657 84.278 222.997 84.014L220.261 82.916C219.313 82.532 218.611 82.04 218.155 81.44C217.711 80.828 217.489 80.096 217.489 79.244C217.489 78.092 217.825 77.24 218.497 76.688C219.169 76.136 220.009 75.86 221.017 75.86C221.809 75.86 222.685 76.22 223.645 76.94C223.765 77.024 223.885 77.102 224.005 77.174C224.125 77.234 224.233 77.264 224.329 77.264C224.533 77.264 224.653 77.12 224.689 76.832L224.761 76.184H225.193L225.373 80.864H224.941C224.749 80 224.443 79.232 224.023 78.56C223.615 77.888 223.135 77.366 222.583 76.994C222.031 76.622 221.461 76.436 220.873 76.436C220.201 76.436 219.649 76.658 219.217 77.102C218.785 77.534 218.569 78.14 218.569 78.92C218.569 79.46 218.707 79.88 218.983 80.18C219.259 80.48 219.667 80.738 220.207 80.954L223.681 82.34C224.485 82.664 225.085 83.126 225.481 83.726C225.889 84.326 226.093 84.956 226.093 85.616C226.093 86.252 225.949 86.852 225.661 87.416C225.385 87.98 224.953 88.442 224.365 88.802C223.789 89.15 223.063 89.324 222.187 89.324Z" fill="white"/>
<path d="M119.247 5.66336C116.981 5.7705 115.167 7.68547 115.18 9.95248" stroke="#E6C078" stroke-width="0.7087" stroke-miterlimit="10" stroke-linecap="round" stroke-linejoin="round"/>
<path d="M109.876 9.94724C109.891 7.68363 108.08 5.76866 105.82 5.65982" stroke="#E6C078" stroke-width="0.7087" stroke-miterlimit="10" stroke-linecap="round" stroke-linejoin="round"/>
<path d="M115.18 52.1055C115.167 54.3742 116.983 56.2891 119.248 56.3946" stroke="#E6C078" stroke-width="0.7087" stroke-miterlimit="10" stroke-linecap="round" stroke-linejoin="round"/>
<path d="M105.82 56.3962C108.085 56.2907 109.901 54.3741 109.886 52.1071" stroke="#E6C078" stroke-width="0.7087" stroke-miterlimit="10" stroke-linecap="round" stroke-linejoin="round"/>
<path d="M105.82 56.5374V56.3962" stroke="#E6C078" stroke-width="0.7087" stroke-miterlimit="10" stroke-linecap="round" stroke-linejoin="round"/>
<path d="M119.248 5.51535H105.818" stroke="#E6C078" stroke-width="0.7087" stroke-miterlimit="10" stroke-linecap="round" stroke-linejoin="round"/>
<path d="M105.818 5.51535V5.65991" stroke="#E6C078" stroke-width="0.7087" stroke-miterlimit="10" stroke-linecap="round" stroke-linejoin="round"/>
<path d="M109.876 9.94727L109.886 52.1054" stroke="#E6C078" stroke-width="0.7087" stroke-miterlimit="10" stroke-linecap="round" stroke-linejoin="round"/>
<path d="M105.82 56.5374H119.248" stroke="#E6C078" stroke-width="0.7087" stroke-miterlimit="10" stroke-linecap="round" stroke-linejoin="round"/>
<path d="M119.248 56.5375V56.3912" stroke="#E6C078" stroke-width="0.7087" stroke-miterlimit="10" stroke-linecap="round" stroke-linejoin="round"/>
<path d="M115.18 52.1055V9.95248" stroke="#E6C078" stroke-width="0.7087" stroke-miterlimit="10" stroke-linecap="round" stroke-linejoin="round"/>
<path d="M119.247 5.66331L119.249 5.51535" stroke="#E6C078" stroke-width="0.7087" stroke-miterlimit="10" stroke-linecap="round" stroke-linejoin="round"/>
<path d="M96 61H156" stroke="#E6C078" stroke-width="0.7087" stroke-miterlimit="10" stroke-linecap="round" stroke-linejoin="round"/>
<path d="M96 60.9999V1" stroke="#E6C078" stroke-width="0.7087" stroke-miterlimit="10" stroke-linecap="round" stroke-linejoin="round"/>
<path d="M96 1H156" stroke="#E6C078" stroke-width="0.7087" stroke-miterlimit="10" stroke-linecap="round" stroke-linejoin="round"/>
<path d="M156 60.9999V1" stroke="#E6C078" stroke-width="0.7087" stroke-miterlimit="10" stroke-linecap="round" stroke-linejoin="round"/>
<path d="M99.2144 57.7857H152.786" stroke="#E6C078" stroke-width="0.7087" stroke-miterlimit="10" stroke-linecap="round" stroke-linejoin="round"/>
<path d="M99.2144 57.7857V4.21432" stroke="#E6C078" stroke-width="0.7087" stroke-miterlimit="10" stroke-linecap="round" stroke-linejoin="round"/>
<path d="M99.2144 4.21432H152.786" stroke="#E6C078" stroke-width="0.7087" stroke-miterlimit="10" stroke-linecap="round" stroke-linejoin="round"/>
<path d="M152.786 57.7857V4.21432" stroke="#E6C078" stroke-width="0.7087" stroke-miterlimit="10" stroke-linecap="round" stroke-linejoin="round"/>
<path d="M136.674 56.3997H136.724" stroke="#E6C078" stroke-width="0.7087" stroke-miterlimit="10" stroke-linecap="round" stroke-linejoin="round"/>
<path d="M133.64 5.51535L120.163 24.2245" stroke="#E6C078" stroke-width="0.7087" stroke-miterlimit="10" stroke-linecap="round" stroke-linejoin="round"/>
<path d="M120.163 24.2245L134.418 41.6837" stroke="#E6C078" stroke-width="0.7087" stroke-miterlimit="10" stroke-linecap="round" stroke-linejoin="round"/>
<path d="M134.418 41.6837L138.104 38.6769" stroke="#E6C078" stroke-width="0.7087" stroke-miterlimit="10" stroke-linecap="round" stroke-linejoin="round"/>
<path d="M138.104 38.6768L126.196 24.0918" stroke="#E6C078" stroke-width="0.7087" stroke-miterlimit="10" stroke-linecap="round" stroke-linejoin="round"/>
<path d="M126.196 24.0919L137.549 8.3317" stroke="#E6C078" stroke-width="0.7087" stroke-miterlimit="10" stroke-linecap="round" stroke-linejoin="round"/>
<path d="M137.549 8.33167L133.639 5.51535" stroke="#E6C078" stroke-width="0.7087" stroke-miterlimit="10" stroke-linecap="round" stroke-linejoin="round"/>
<path d="M135.253 20.9082L150.276 38.6973" stroke="#E6C078" stroke-width="0.7087" stroke-miterlimit="10" stroke-linecap="round" stroke-linejoin="round"/>
<path d="M131.694 24.0919L135.254 20.9082" stroke="#E6C078" stroke-width="0.7087" stroke-miterlimit="10" stroke-linecap="round" stroke-linejoin="round"/>
<path d="M150.276 38.6973L136.708 56.4234" stroke="#E6C078" stroke-width="0.7087" stroke-miterlimit="10" stroke-linecap="round" stroke-linejoin="round"/>
<path d="M132.877 53.5917L136.707 56.4233" stroke="#E6C078" stroke-width="0.7087" stroke-miterlimit="10" stroke-linecap="round" stroke-linejoin="round"/>
<path d="M136.708 56.4232L136.726 56.3997" stroke="#E6C078" stroke-width="0.7087" stroke-miterlimit="10" stroke-linecap="round" stroke-linejoin="round"/>
<path d="M132.877 53.5918L143.893 38.6973" stroke="#E6C078" stroke-width="0.7087" stroke-miterlimit="10" stroke-linecap="round" stroke-linejoin="round"/>
<path d="M143.893 38.6973L131.694 24.0918" stroke="#E6C078" stroke-width="0.7087" stroke-miterlimit="10" stroke-linecap="round" stroke-linejoin="round"/>
</svg>
