<svg width="62" height="62" viewBox="0 0 62 62" fill="none" xmlns="http://www.w3.org/2000/svg">
<path d="M24.2466 5.66336C21.9813 5.7705 20.1666 7.68547 20.1803 9.95248" stroke="#E6C078" stroke-width="0.7087" stroke-miterlimit="10" stroke-linecap="round" stroke-linejoin="round"/>
<path d="M14.8759 9.94724C14.8912 7.68363 13.08 5.76866 10.8198 5.65982" stroke="#E6C078" stroke-width="0.7087" stroke-miterlimit="10" stroke-linecap="round" stroke-linejoin="round"/>
<path d="M20.1803 52.1055C20.1666 54.3742 21.983 56.2891 24.2483 56.3946" stroke="#E6C078" stroke-width="0.7087" stroke-miterlimit="10" stroke-linecap="round" stroke-linejoin="round"/>
<path d="M10.8198 56.3962C13.0851 56.2907 14.9014 54.3741 14.8861 52.1071" stroke="#E6C078" stroke-width="0.7087" stroke-miterlimit="10" stroke-linecap="round" stroke-linejoin="round"/>
<path d="M10.8198 56.5374V56.3962" stroke="#E6C078" stroke-width="0.7087" stroke-miterlimit="10" stroke-linecap="round" stroke-linejoin="round"/>
<path d="M24.2484 5.51535H10.8181" stroke="#E6C078" stroke-width="0.7087" stroke-miterlimit="10" stroke-linecap="round" stroke-linejoin="round"/>
<path d="M10.8181 5.51535V5.65991" stroke="#E6C078" stroke-width="0.7087" stroke-miterlimit="10" stroke-linecap="round" stroke-linejoin="round"/>
<path d="M14.876 9.94727L14.8862 52.1054" stroke="#E6C078" stroke-width="0.7087" stroke-miterlimit="10" stroke-linecap="round" stroke-linejoin="round"/>
<path d="M10.8198 56.5374H24.2484" stroke="#E6C078" stroke-width="0.7087" stroke-miterlimit="10" stroke-linecap="round" stroke-linejoin="round"/>
<path d="M24.2483 56.5375V56.3912" stroke="#E6C078" stroke-width="0.7087" stroke-miterlimit="10" stroke-linecap="round" stroke-linejoin="round"/>
<path d="M20.1802 52.1055V9.95248" stroke="#E6C078" stroke-width="0.7087" stroke-miterlimit="10" stroke-linecap="round" stroke-linejoin="round"/>
<path d="M24.2468 5.66331L24.2485 5.51535" stroke="#E6C078" stroke-width="0.7087" stroke-miterlimit="10" stroke-linecap="round" stroke-linejoin="round"/>
<path d="M1 61H60.9999" stroke="#E6C078" stroke-width="0.7087" stroke-miterlimit="10" stroke-linecap="round" stroke-linejoin="round"/>
<path d="M1 60.9999V1" stroke="#E6C078" stroke-width="0.7087" stroke-miterlimit="10" stroke-linecap="round" stroke-linejoin="round"/>
<path d="M1 1H60.9999" stroke="#E6C078" stroke-width="0.7087" stroke-miterlimit="10" stroke-linecap="round" stroke-linejoin="round"/>
<path d="M61 60.9999V1" stroke="#E6C078" stroke-width="0.7087" stroke-miterlimit="10" stroke-linecap="round" stroke-linejoin="round"/>
<path d="M4.21436 57.7857H57.7857" stroke="#E6C078" stroke-width="0.7087" stroke-miterlimit="10" stroke-linecap="round" stroke-linejoin="round"/>
<path d="M4.21436 57.7857V4.21432" stroke="#E6C078" stroke-width="0.7087" stroke-miterlimit="10" stroke-linecap="round" stroke-linejoin="round"/>
<path d="M4.21436 4.21432H57.7857" stroke="#E6C078" stroke-width="0.7087" stroke-miterlimit="10" stroke-linecap="round" stroke-linejoin="round"/>
<path d="M57.7856 57.7857V4.21432" stroke="#E6C078" stroke-width="0.7087" stroke-miterlimit="10" stroke-linecap="round" stroke-linejoin="round"/>
<path d="M41.6736 56.3997H41.7242" stroke="#E6C078" stroke-width="0.7087" stroke-miterlimit="10" stroke-linecap="round" stroke-linejoin="round"/>
<path d="M38.6395 5.51535L25.1633 24.2245" stroke="#E6C078" stroke-width="0.7087" stroke-miterlimit="10" stroke-linecap="round" stroke-linejoin="round"/>
<path d="M25.1633 24.2245L39.4184 41.6837" stroke="#E6C078" stroke-width="0.7087" stroke-miterlimit="10" stroke-linecap="round" stroke-linejoin="round"/>
<path d="M39.4182 41.6837L43.1036 38.6769" stroke="#E6C078" stroke-width="0.7087" stroke-miterlimit="10" stroke-linecap="round" stroke-linejoin="round"/>
<path d="M43.1037 38.6768L31.1956 24.0918" stroke="#E6C078" stroke-width="0.7087" stroke-miterlimit="10" stroke-linecap="round" stroke-linejoin="round"/>
<path d="M31.1956 24.0919L42.5493 8.3317" stroke="#E6C078" stroke-width="0.7087" stroke-miterlimit="10" stroke-linecap="round" stroke-linejoin="round"/>
<path d="M42.5493 8.33167L38.6394 5.51535" stroke="#E6C078" stroke-width="0.7087" stroke-miterlimit="10" stroke-linecap="round" stroke-linejoin="round"/>
<path d="M40.2534 20.9082L55.2755 38.6973" stroke="#E6C078" stroke-width="0.7087" stroke-miterlimit="10" stroke-linecap="round" stroke-linejoin="round"/>
<path d="M36.6941 24.0919L40.2536 20.9082" stroke="#E6C078" stroke-width="0.7087" stroke-miterlimit="10" stroke-linecap="round" stroke-linejoin="round"/>
<path d="M55.2755 38.6973L41.7075 56.4234" stroke="#E6C078" stroke-width="0.7087" stroke-miterlimit="10" stroke-linecap="round" stroke-linejoin="round"/>
<path d="M37.8774 53.5917L41.7074 56.4233" stroke="#E6C078" stroke-width="0.7087" stroke-miterlimit="10" stroke-linecap="round" stroke-linejoin="round"/>
<path d="M41.7075 56.4232L41.7259 56.3997" stroke="#E6C078" stroke-width="0.7087" stroke-miterlimit="10" stroke-linecap="round" stroke-linejoin="round"/>
<path d="M37.8774 53.5918L48.8927 38.6973" stroke="#E6C078" stroke-width="0.7087" stroke-miterlimit="10" stroke-linecap="round" stroke-linejoin="round"/>
<path d="M48.893 38.6973L36.6941 24.0918" stroke="#E6C078" stroke-width="0.7087" stroke-miterlimit="10" stroke-linecap="round" stroke-linejoin="round"/>
</svg>
