<svg width="62" height="62" viewBox="0 0 62 62" fill="none" xmlns="http://www.w3.org/2000/svg">
<path d="M9.66797 39.6684L30.9998 61.0003L52.3317 39.6684L30.9998 18.3384L9.66797 39.6684ZM30.9998 59.6746L10.9955 39.6684L30.9998 19.664L51.0042 39.6684L30.9998 59.6746Z" fill="#BAA170" stroke="#BAA170" stroke-width="0.5"/>
<path d="M20.9688 39.668L31 49.6992L41.0313 39.668L31 29.6367L20.9688 39.668ZM31 48.3736L22.2944 39.668L31 30.9642L39.7056 39.6698L31 48.3736Z" fill="#BAA170" stroke="#BAA170" stroke-width="0.5"/>
<path d="M26.7587 13.8794L13.8794 1L1 13.8794L13.8794 26.7587L26.7587 13.8794ZM13.8794 2.32562L25.4331 13.8794L13.8794 25.4331L2.32562 13.8794L13.8794 2.32562Z" fill="#BAA170" stroke="#BAA170" stroke-width="0.5"/>
<path d="M19.9357 13.8792L13.8795 7.823L7.82324 13.8792L13.8795 19.9355L19.9357 13.8792ZM13.8795 9.14862L18.6101 13.8792L13.8795 18.6099L9.14887 13.8792L13.8795 9.14862Z" fill="#BAA170" stroke="#BAA170" stroke-width="0.5"/>
<path d="M35.2412 13.8794L48.1206 26.7587L61 13.8794L48.1206 1L35.2412 13.8794ZM48.1206 25.4331L36.5668 13.8794L48.1206 2.32562L59.6743 13.8794L48.1206 25.4331Z" fill="#BAA170" stroke="#BAA170" stroke-width="0.5"/>
<path d="M42.0645 13.8792L48.1207 19.9355L54.177 13.8792L48.1207 7.823L42.0645 13.8792ZM48.1207 18.6099L43.3901 13.8792L48.1207 9.14862L52.8513 13.8792L48.1207 18.6099Z" fill="#BAA170" stroke="#BAA170" stroke-width="0.5"/>
</svg>
