<svg width="60" height="60" viewBox="0 0 60 60" fill="none" xmlns="http://www.w3.org/2000/svg">
<path d="M59.8665 59.6299V3.8147e-06C39.911 3.8147e-06 19.9555 3.8147e-06 0 3.8147e-06V59.6299C19.9555 59.6299 39.911 59.6299 59.8665 59.6299ZM36.3269 58.224V45.8841H34.921V58.224H27.8219C27.7885 57.1832 27.6961 55.9897 27.4965 54.7309C26.8067 50.3739 25.1841 47.8243 25.3219 42.9089C25.4207 39.3497 26.3371 35.8822 27.5811 32.5639V11.7545C25.4974 8.69971 25.8476 4.62621 27.3651 1.40591H31.7952C32.7926 4.07421 33.1898 6.94428 32.063 9.64385V34.0529C31.4592 35.9788 30.9328 37.8316 31.2233 39.852C31.4613 41.4284 31.9842 44.891 31.6581 47.2872C31.4791 48.6064 31.0457 49.5641 30.1378 49.4411C28.4819 49.2152 27.5221 47.2374 27.1889 45.7854C26.5538 43.0261 27.3104 39.9117 29.6384 38.1513L28.7923 37.031C26.0224 39.1245 25.0612 42.8031 25.8214 46.0987C26.298 48.1745 27.6443 50.5167 29.9503 50.83C31.9039 51.0957 32.7607 49.5847 33.0477 47.4747C33.4022 44.8696 32.8601 41.2792 32.6122 39.6439C32.36 37.9012 32.8829 35.9185 33.4697 34.2795V9.91594C34.5601 7.18653 34.2163 4.1275 33.2828 1.40591H35.3196V41.4369H36.7255V1.40591H39.7632V58.224H36.3269ZM49.7807 31.3228C50.5544 29.1603 50.5544 25.7546 49.7807 23.5921C48.8437 20.9685 46.8005 20.9678 45.8628 23.5914C45.0899 25.7574 45.0899 29.1575 45.8628 31.3235C46.8005 33.9471 48.8437 33.9463 49.7807 31.3228ZM48.4572 30.8504C47.9692 32.2165 47.6751 32.2186 47.1863 30.8511C46.5235 28.9926 46.5235 25.9222 47.1863 24.0638C47.6751 22.697 47.9692 22.6991 48.4572 24.0645C49.1215 25.9201 49.1215 28.9955 48.4572 30.8504ZM50.1821 49.4262V41.6799C50.4514 40.4409 53.5353 25.8498 51.3408 17.3007C49.8113 12.9622 50.0329 5.86303 50.3079 1.40591H53.8059V14.4263H55.2118V1.40591H58.4605V58.224H50.0642V52.9755H48.6583V58.224H41.1691V1.40591H48.9019C48.2207 12.6389 49.758 17.0797 49.9931 17.6829C51.642 24.1668 50.2475 34.8997 48.7755 41.5499V49.4262H50.1821ZM55.2118 34.1303V17.3554H53.8059V34.1303H55.2118ZM55.2118 56.2597V39.4847H53.8059V56.2597H55.2118ZM46.5143 56.4664V40.5439C45.1261 33.8455 43.4467 21.4822 46.277 15.1922V6.88105H44.8711V14.9101C41.4654 22.817 44.8469 39.4279 45.1083 40.6747V56.4664H46.5143ZM25.8256 1.40591C23.4138 7.11194 25.6118 11.26 26.1751 12.1743V32.3231C24.6883 36.3326 24.0084 39.7717 23.9217 42.8713C23.7789 47.9841 25.4058 50.4812 26.1126 54.9504C26.2995 56.129 26.3883 57.2464 26.4209 58.224H24.0041V52.6224H22.5982V58.224H19.6308V1.40591H22.5982V30.2245H24.0041V1.40591H25.8256ZM31.1843 46.2194C31.7448 44.9364 31.7434 42.9686 31.1843 41.6856C30.4618 40.0317 28.8854 40.0317 28.1629 41.6856C27.6038 42.9686 27.6024 44.9364 28.1629 46.2194C28.8847 47.874 30.4625 47.874 31.1843 46.2194ZM29.8991 45.6596C29.6725 46.1811 29.6753 46.1811 29.448 45.6596C29.0488 44.7432 29.0495 43.1618 29.448 42.2454C29.6761 41.7246 29.6718 41.7246 29.8991 42.2454C30.2977 43.1618 30.2984 44.7432 29.8991 45.6596ZM6.84411 46.429C6.84411 46.4169 6.72476 41.9967 5.28689 36.1259C3.90443 30.4817 6.11736 19.4156 6.12304 19.3843C6.53153 17.2957 6.13654 8.42407 6.13654 5.64068H4.73064V19.1875C4.54309 20.153 2.53262 30.7694 3.92432 36.4548C5.32667 42.1822 5.44389 46.4951 5.44389 46.5064L6.84411 46.429ZM8.65353 39.1167C8.64856 39.0983 6.62246 32.3216 7.13751 28.0897C7.3414 26.4131 7.77831 25.8832 8.14204 25.7539C8.88655 25.4939 10.5248 33.513 9.19132 31.803C8.7125 31.1907 8.95759 30.1733 8.9583 30.1705L7.59005 29.8686C7.27675 31.4329 8.44538 34.3776 9.72341 33.346C11.1045 32.2271 11.4035 25.057 8.69545 24.2982C7.70442 24.0212 6.18982 24.2513 5.74226 27.9249C5.19169 32.4509 7.29736 39.4819 7.30233 39.5003L8.65353 39.1167ZM10.691 50.1295C10.6917 50.1132 11.2806 43.76 12.2262 35.9589C13.1284 28.5103 10.7663 20.3554 10.4573 19.331V13.6286H9.05065V19.5228C10.551 24.4062 11.4419 30.7573 10.8317 35.7941C9.88397 43.6129 9.29148 50.0081 9.29077 50.0258L10.691 50.1295ZM10.6938 7.98006V1.40591H18.2249V58.224H10.6938V51.7081H9.28793V58.224H6.78941V49.1634H5.38279V58.224H1.40591V1.40591H9.28793V7.98006H10.6938ZM16.1988 11.1172V5.58455H14.7922V11.1172H16.1988ZM16.1988 45.3776V16.3253H14.7922V45.3776H16.1988ZM16.1988 56.0871V49.1044H14.7922V56.0871H16.1988Z" fill="#BAA170"/>
</svg>
