<svg width="59" height="60" viewBox="0 0 59 60" fill="none" xmlns="http://www.w3.org/2000/svg">
<path d="M14.5989 45.7496L14.9203 46.0623L9.2569 51.8234L8.94882 51.5196C8.74304 51.3163 8.5396 51.1088 8.33963 50.8995L8.03911 50.5868L13.7025 44.828L14.0106 45.1525C14.2024 45.3547 14.3995 45.5551 14.5989 45.7496ZM0.0122068 29.1239L0.00348743 29.6684C0.00174359 29.7783 0 29.8889 0 30C0 30.1111 0.00174382 30.2211 0.00406895 30.3316L0.0127884 30.8755H8.01877L8.0054 30L8.01819 29.1245H0.0122068V29.1239ZM50.9801 30.8749H58.9872L58.9959 30.331C58.9977 30.2205 59 30.11 59 29.9994C59 29.8889 58.9977 29.7783 58.9959 29.6678L58.9872 29.1233H51.4247L50.9801 29.1269L50.9894 29.5791C50.9917 29.7192 50.9946 29.8587 50.9946 29.9994C50.9946 30.1401 50.9917 30.2808 50.9888 30.4233L50.9801 30.8749ZM49.7425 51.8234L50.0512 51.5196C50.257 51.3163 50.4598 51.1088 50.6604 50.8995L50.9609 50.5868L45.298 44.828L44.99 45.1525C44.7981 45.3547 44.6017 45.5557 44.4011 45.7507L44.0785 46.0634L49.7425 51.8234ZM8.94882 8.48039C8.74246 8.68374 8.5396 8.88946 8.33905 9.0999L8.03911 9.4132L13.7031 15.172L14.0112 14.8457C14.203 14.6424 14.4001 14.4432 14.5994 14.2469L14.9186 13.9336L9.2569 8.17596L8.94882 8.48039ZM29.9145 8.14818L30.3615 8.15763V0.00827583L29.4988 0L28.6391 0.00827583L28.6409 8.15645L29.0855 8.14759C29.364 8.14227 29.6407 8.14227 29.9145 8.14818ZM28.6391 59.9882L29.4988 60L30.3591 59.9882V51.8441L29.847 51.8536C29.7319 51.856 29.6163 51.8571 29.4983 51.8571L28.6385 51.8453V59.9882H28.6391ZM45.2969 15.1726L50.9609 9.41379L50.6609 9.10049C50.4598 8.89064 50.2575 8.68433 50.0512 8.48099L49.7425 8.17655L44.0785 13.936L44.4 14.2487C44.6011 14.4443 44.7976 14.6435 44.9894 14.8463L45.2969 15.1726Z" fill="#BAA170"/>
</svg>
