<svg width="58" height="50" viewBox="0 0 58 50" fill="none" xmlns="http://www.w3.org/2000/svg">
<path d="M29 0C26.7732 0 24.9535 1.82306 24.9535 4.05405C24.9535 6.05742 26.4138 7.72394 28.3256 8.04476V17.1453L15.891 23.3742C15.7765 23.43 15.6802 23.5171 15.613 23.6254C15.5459 23.7338 15.5107 23.859 15.5116 23.9865V39.0836L7.46076 43.7922C6.74185 42.6571 5.48129 41.8919 4.04651 41.8919C1.81967 41.8919 0 43.715 0 45.9459C0 48.1769 1.81967 50 4.04651 50C6.27335 50 8.09302 48.1769 8.09302 45.9459C8.09302 45.6435 8.05101 45.343 7.98765 45.0591L16.1439 40.2872L28.6417 47.8674C28.7491 47.9348 28.8733 47.9706 29 47.9706C29.1267 47.9706 29.2509 47.9348 29.3583 47.8674L41.8561 40.2872L50.0124 45.0591C49.949 45.343 49.907 45.6435 49.907 45.9459C49.907 48.1769 51.7267 50 53.9535 50C56.1803 50 58 48.1769 58 45.9459C58 43.715 56.1803 41.8919 53.9535 41.8919C52.5187 41.8919 51.2581 42.6571 50.5392 43.7922L42.4884 39.0836V23.9865C42.4893 23.859 42.4541 23.7338 42.387 23.6254C42.3198 23.5171 42.2235 23.43 42.109 23.3742L33.3416 18.9823C33.2613 18.9434 33.1742 18.9208 33.0852 18.9158C32.9962 18.9107 32.9071 18.9232 32.823 18.9526C32.7388 18.982 32.6613 19.0277 32.5948 19.0872C32.5282 19.1466 32.4741 19.2186 32.4353 19.299C32.3966 19.3794 32.374 19.4667 32.3689 19.5558C32.3638 19.645 32.3763 19.7342 32.4057 19.8186C32.4351 19.9029 32.4807 19.9806 32.54 20.0472C32.5993 20.1138 32.6712 20.1681 32.7515 20.2069L40.3176 24.0076L29 30.2998L17.6824 24.0076L29.2951 18.1799C29.4095 18.1241 29.5059 18.037 29.573 17.9286C29.6402 17.8203 29.6753 17.6951 29.6744 17.5676V8.04476C31.5863 7.72394 33.0465 6.05742 33.0465 4.05405C33.0465 1.82306 31.2268 0 29 0ZM29 1.35135C30.4979 1.35135 31.6977 2.55339 31.6977 4.05405C31.6977 5.55472 30.4979 6.75676 29 6.75676C27.5021 6.75676 26.3023 5.55472 26.3023 4.05405C26.3023 2.55339 27.5021 1.35135 29 1.35135ZM16.8605 25.1056L28.3256 31.4823V46.1149L16.8605 39.147V25.1056ZM41.1395 25.1056V39.147L29.6744 46.1149V31.4823L41.1395 25.1056ZM4.04651 43.2432C5.54439 43.2432 6.74419 44.4453 6.74419 45.9459C6.74419 47.4466 5.54439 48.6487 4.04651 48.6487C2.54864 48.6487 1.34884 47.4466 1.34884 45.9459C1.34884 44.4453 2.54864 43.2432 4.04651 43.2432ZM53.9535 43.2432C55.4514 43.2432 56.6512 44.4453 56.6512 45.9459C56.6512 47.4466 55.4514 48.6487 53.9535 48.6487C52.4556 48.6487 51.2558 47.4466 51.2558 45.9459C51.2558 44.4453 52.4556 43.2432 53.9535 43.2432Z" fill="#BAA170"/>
</svg>
