<svg width="33" height="19" viewBox="0 0 33 19" fill="none" xmlns="http://www.w3.org/2000/svg">
<path d="M32.7393 16.9596C32.6986 16.8724 32.6637 16.8026 32.6269 16.7463C32.0549 15.7188 30.9633 14.4566 29.3541 12.9598L29.3192 12.9229L29.3017 12.9074L29.2843 12.89H29.2688C28.5359 12.192 28.0725 11.7247 27.8786 11.4843C27.5238 11.0287 27.4424 10.5634 27.6382 10.0961C27.7739 9.74131 28.2897 8.99485 29.1815 7.85094C29.6507 7.24602 30.023 6.7613 30.2964 6.39486C32.2721 3.76773 33.129 2.08675 32.8653 1.35581L32.7645 1.18519C32.6967 1.08243 32.5183 0.987429 32.2333 0.90212C31.9483 0.81681 31.5818 0.801299 31.1378 0.859464L26.2015 0.894364C26.122 0.86722 26.0057 0.86722 25.8603 0.90212C25.711 0.937019 25.6373 0.954468 25.6373 0.954468L25.5501 0.997122L25.4822 1.04947C25.426 1.08243 25.362 1.14254 25.2942 1.22784C25.2263 1.31315 25.1681 1.41397 25.1235 1.52837C24.5865 2.91076 23.9738 4.19621 23.2894 5.38279C22.8648 6.0924 22.477 6.70702 22.1222 7.22469C21.7674 7.74624 21.4708 8.12819 21.2303 8.37442C20.9919 8.61872 20.7747 8.81842 20.5808 8.96383C20.385 9.11312 20.2377 9.17517 20.1349 9.15384C20.0341 9.13057 19.9352 9.10731 19.846 9.08404C19.6851 8.98128 19.5571 8.84168 19.4602 8.66525C19.3613 8.48882 19.2973 8.26585 19.2624 7.99635C19.2275 7.72685 19.2081 7.49613 19.2023 7.30224C19.1984 7.10836 19.2004 6.83304 19.212 6.48017C19.2217 6.12536 19.2295 5.88495 19.2295 5.76086C19.2295 5.32656 19.2372 4.85542 19.2547 4.34745C19.2721 3.83947 19.2876 3.43619 19.2973 3.13954C19.307 2.8429 19.3148 2.52881 19.3148 2.19727C19.3148 1.86766 19.2934 1.60786 19.2547 1.41785C19.2159 1.22978 19.1538 1.04753 19.0743 0.869159C18.9929 0.692724 18.8746 0.555066 18.7195 0.458124C18.5664 0.361182 18.3764 0.283628 18.1476 0.225462C17.5407 0.0878043 16.771 0.0141287 15.8345 0.00249564C13.7076 -0.0207705 12.3427 0.118826 11.7378 0.41353C11.4993 0.541494 11.2802 0.712113 11.0863 0.929263C10.8827 1.18131 10.8536 1.31897 11.001 1.3403C11.6874 1.44306 12.1721 1.68929 12.459 2.07706L12.5618 2.28258C12.6413 2.42993 12.7227 2.69361 12.8002 3.06975C12.8817 3.44782 12.9321 3.86467 12.9554 4.32224C13.0116 5.15594 13.0116 5.86944 12.9554 6.46466C12.8991 7.05795 12.8448 7.52133 12.7925 7.85094C12.7421 8.18248 12.6645 8.45198 12.5618 8.65749C12.459 8.86301 12.3892 8.98904 12.3563 9.03557C12.3214 9.08016 12.2923 9.10924 12.2709 9.12088C12.1217 9.17904 11.9665 9.20619 11.8076 9.20619C11.6486 9.20619 11.4547 9.12669 11.2259 8.96577C10.9971 8.80485 10.7586 8.58576 10.5144 8.30656C10.2681 8.02737 9.99086 7.63572 9.68259 7.13162C9.37237 6.62946 9.0544 6.03618 8.72286 5.34983L8.44754 4.85348C8.27693 4.53357 8.04232 4.06825 7.74568 3.45558C7.44904 2.84484 7.18536 2.25349 6.95657 1.68153C6.86738 1.44306 6.72973 1.26081 6.54554 1.13478L6.46217 1.08243C6.40206 1.03784 6.31094 0.989367 6.18685 0.937018C6.06083 0.886608 5.93092 0.847832 5.79133 0.826505L1.09739 0.859464C0.616553 0.859464 0.290827 0.96804 0.120208 1.18325L0.05041 1.28795C0.0174496 1.34611 0 1.43724 0 1.56326C0 1.68929 0.0348994 1.8444 0.102759 2.02665C0.78911 3.63783 1.53363 5.19084 2.33825 6.68763C3.1448 8.18442 3.84279 9.39038 4.43608 10.3036C5.0313 11.2187 5.63622 12.0796 6.25277 12.89C6.87126 13.7004 7.27842 14.222 7.47812 14.4508C7.67976 14.6815 7.83681 14.8502 7.9512 14.9665L8.37774 15.3756C8.65306 15.6528 9.05634 15.9805 9.58758 16.3625C10.1188 16.7444 10.7082 17.1225 11.3519 17.4928C11.9976 17.8631 12.7498 18.1675 13.6068 18.4021C14.4638 18.6367 15.2994 18.7317 16.1099 18.6833H18.0817C18.483 18.6522 18.7835 18.5243 18.991 18.3091L19.0569 18.2257C19.1015 18.154 19.1461 18.0512 19.1849 17.9077C19.2236 17.7642 19.245 17.6091 19.245 17.4346C19.2333 16.9461 19.2702 16.504 19.3574 16.1085C19.4427 15.7149 19.5397 15.4182 19.6463 15.2166C19.7568 15.0169 19.877 14.8482 20.0166 14.7106C20.1504 14.5748 20.2493 14.4915 20.3055 14.4605C20.3617 14.4333 20.4083 14.4159 20.4412 14.4023C20.7165 14.3112 21.0384 14.4003 21.4107 14.6698C21.781 14.9393 22.128 15.269 22.4557 15.6645C22.7814 16.0581 23.1731 16.5021 23.6268 16.9926C24.0863 17.485 24.4837 17.8476 24.8269 18.09L25.1701 18.2935C25.3989 18.4293 25.6955 18.5553 26.0619 18.6716C26.4264 18.786 26.7483 18.8112 27.0197 18.755L31.4073 18.6871C31.8436 18.6871 32.179 18.6154 32.4194 18.4719C32.6598 18.3284 32.7994 18.1733 32.8479 18.0027C32.8925 17.8321 32.8944 17.6382 32.8556 17.4191C32.8188 17.1981 32.7781 17.0469 32.7393 16.9596Z" fill="#53729A"/>
</svg>
