<svg width="35" height="27" viewBox="0 0 35 27" fill="none" xmlns="http://www.w3.org/2000/svg">
<path d="M34.3617 5.16147C34.0804 2.63525 32.2823 0.70589 29.7478 0.538502C18.7924 -0.179501 16.2074 -0.179501 5.24968 0.538502C2.71744 0.70589 0.919368 2.63304 0.638007 5.16147C-0.212669 12.8525 -0.212669 14.1475 0.638007 21.8385C0.91717 24.367 2.71744 26.2941 5.25188 26.4615C16.2074 27.1795 18.7924 27.1795 29.75 26.4615C32.2823 26.2963 34.0826 24.367 34.3639 21.8385C35.2124 14.1475 35.2124 12.8547 34.3617 5.16147ZM24.8372 14.1651L15.3589 19.8893C15.1127 20.0347 14.7698 20.0391 14.5192 19.8982C14.2708 19.7572 14.0686 19.5105 14.0686 19.222V7.7802C14.0686 7.49168 14.2708 7.24721 14.5192 7.10405C14.7698 6.96309 15.0841 6.96749 15.3303 7.11286L24.8196 12.8371C25.057 12.9802 25.2021 13.2225 25.2021 13.5022C25.2021 13.7819 25.0746 14.022 24.8372 14.1651Z" fill="#E33222"/>
</svg>
